<svg xmlns="http://www.w3.org/2000/svg" xmlns:xlink="http://www.w3.org/1999/xlink" width="500" zoomAndPan="magnify" viewBox="0 0 375 374.999991" height="500" preserveAspectRatio="xMidYMid meet" version="1.0"><defs><g/><clipPath id="id1"><path d="M 289 108.246094 L 337.472656 108.246094 L 337.472656 189 L 289 189 Z M 289 108.246094 " clip-rule="nonzero"/></clipPath><clipPath id="id2"><path d="M 299 193 L 323 193 L 323 216.996094 L 299 216.996094 Z M 299 193 " clip-rule="nonzero"/></clipPath></defs><g clip-path="url(#id1)"><path fill="#040606" d="M 307.175781 112.429688 C 307.953125 112.492188 308.746094 112.585938 309.554688 112.707031 C 309.609375 112.5 309.726562 112.3125 309.902344 112.167969 C 310.066406 112.027344 310.234375 111.890625 310.40625 111.757812 C 309.339844 111.933594 308.269531 112.15625 307.175781 112.429688 Z M 321.007812 112.078125 C 320.714844 112.367188 320.386719 112.613281 320.035156 112.828125 C 320.167969 112.773438 320.300781 112.71875 320.433594 112.667969 C 320.84375 112.503906 321.253906 112.34375 321.671875 112.234375 C 321.460938 112.171875 321.25 112.113281 321.035156 112.054688 C 321.023438 112.0625 321.015625 112.070312 321.007812 112.078125 Z M 312.078125 113.171875 C 312.351562 113.234375 312.628906 113.296875 312.910156 113.367188 C 313.039062 113.128906 313.265625 112.957031 313.558594 112.902344 C 314.691406 112.683594 315.855469 112.292969 317.113281 111.710938 C 317.25 111.648438 317.722656 111.425781 317.824219 111.378906 C 317.242188 111.285156 316.65625 111.207031 316.074219 111.148438 L 315.804688 111.25 C 315.496094 111.371094 315.207031 111.480469 314.941406 111.601562 C 313.792969 112.136719 312.875 112.636719 312.078125 113.171875 Z M 319.273438 115.59375 C 319.542969 115.726562 319.808594 115.867188 320.066406 116.011719 C 320.910156 115.75 321.773438 115.457031 322.699219 115.121094 C 322.996094 115.011719 323.300781 114.882812 323.613281 114.746094 C 324.40625 114.410156 325.222656 114.0625 326.0625 113.96875 C 325.472656 113.660156 324.851562 113.375 324.207031 113.113281 C 324.171875 113.328125 324.054688 113.53125 323.882812 113.664062 C 323.175781 114.203125 322.308594 114.488281 321.464844 114.761719 C 321.070312 114.890625 320.695312 115.011719 320.351562 115.15625 C 320.019531 115.296875 319.65625 115.445312 319.273438 115.59375 Z M 322.574219 117.769531 C 322.90625 117.65625 323.234375 117.542969 323.5625 117.425781 C 324.5 117.101562 325.46875 116.765625 326.4375 116.46875 C 326.664062 116.398438 326.890625 116.324219 327.121094 116.246094 C 327.695312 116.058594 328.277344 115.863281 328.878906 115.75 C 328.464844 115.433594 328.027344 115.128906 327.574219 114.839844 C 327.570312 115.039062 327.488281 115.230469 327.335938 115.386719 C 326.492188 116.238281 325.257812 116.621094 324.167969 116.964844 C 323.902344 117.042969 323.644531 117.125 323.398438 117.210938 C 323.050781 117.328125 322.695312 117.449219 322.335938 117.5625 C 322.414062 117.628906 322.496094 117.699219 322.574219 117.769531 Z M 324.207031 119.503906 C 324.578125 119.96875 324.925781 120.464844 325.246094 120.980469 C 325.394531 120.886719 325.542969 120.796875 325.6875 120.703125 C 326.117188 120.4375 326.519531 120.1875 326.890625 119.925781 C 327.265625 119.660156 327.640625 119.34375 328.035156 119.007812 C 328.351562 118.738281 328.675781 118.460938 329.007812 118.207031 C 328.632812 118.308594 328.246094 118.390625 327.867188 118.472656 C 327.382812 118.578125 326.917969 118.675781 326.492188 118.804688 C 325.730469 119.035156 324.96875 119.269531 324.207031 119.503906 Z M 326.457031 123.28125 C 326.820312 124.128906 327.132812 125.023438 327.382812 125.964844 C 327.753906 125.625 328.132812 125.304688 328.5 124.988281 L 328.933594 124.613281 C 330.039062 123.660156 331.355469 122.601562 332.988281 122.136719 C 333.09375 122.105469 333.199219 122.09375 333.300781 122.09375 C 333.40625 122.09375 333.503906 122.105469 333.601562 122.136719 C 333.226562 121.039062 332.726562 120.035156 332.089844 119.105469 C 331.871094 118.78125 331.628906 118.464844 331.375 118.152344 C 331.480469 119.597656 329.894531 120.746094 328.832031 121.519531 L 328.570312 121.707031 C 328.339844 121.878906 328.105469 122.058594 327.863281 122.242188 C 327.410156 122.589844 326.941406 122.945312 326.457031 123.28125 Z M 327.945312 128.769531 C 328.074219 129.6875 328.167969 130.640625 328.226562 131.625 C 328.9375 130.683594 329.855469 129.839844 330.699219 129.0625 C 330.90625 128.875 331.105469 128.6875 331.296875 128.503906 C 332.414062 127.449219 333.394531 126.648438 334.363281 126.007812 C 334.304688 125.292969 334.214844 124.605469 334.082031 123.949219 C 333.964844 124.066406 333.8125 124.160156 333.632812 124.214844 C 332.140625 124.671875 330.863281 125.921875 329.738281 127.027344 L 329.648438 127.113281 C 329.480469 127.277344 329.308594 127.453125 329.132812 127.632812 C 328.757812 128.019531 328.371094 128.414062 327.945312 128.769531 Z M 328.304688 134.230469 C 328.304688 136.089844 328.191406 138.039062 327.960938 140.140625 C 328.570312 139.519531 329.234375 138.949219 329.847656 138.425781 C 330.039062 138.261719 330.222656 138.101562 330.402344 137.945312 C 331.433594 137.046875 332.488281 136.191406 333.316406 135.53125 C 333.929688 133.042969 334.28125 130.847656 334.386719 128.847656 C 333.707031 129.414062 333.003906 130.074219 332.226562 130.878906 C 331.992188 131.121094 331.757812 131.378906 331.523438 131.636719 C 330.644531 132.601562 329.738281 133.601562 328.53125 134.160156 C 328.457031 134.195312 328.382812 134.21875 328.304688 134.230469 Z M 327.425781 144.058594 C 327.1875 145.523438 326.898438 147.0625 326.539062 148.796875 C 327.476562 147.675781 328.726562 146.335938 330.078125 145.957031 C 330.453125 144.851562 330.824219 143.75 331.1875 142.652344 C 331.488281 141.742188 331.820312 140.730469 332.148438 139.671875 C 331.996094 139.8125 331.839844 139.957031 331.6875 140.101562 C 331.273438 140.488281 330.875 140.925781 330.449219 141.382812 C 329.53125 142.378906 328.582031 143.40625 327.425781 144.058594 Z M 324.984375 155.554688 C 325.652344 154.867188 326.335938 154.191406 327.007812 153.535156 C 327.265625 153.277344 327.527344 153.023438 327.785156 152.769531 C 328.050781 151.960938 328.320312 151.152344 328.59375 150.347656 C 328.1875 150.820312 327.789062 151.316406 327.402344 151.828125 C 326.527344 152.996094 325.78125 154.109375 325.117188 155.230469 C 325.089844 155.28125 325.058594 155.335938 325.027344 155.390625 C 325.011719 155.445312 325 155.5 324.984375 155.554688 Z M 323.410156 161.175781 C 323.269531 161.671875 323.140625 162.132812 323.019531 162.570312 C 323.707031 161.964844 324.367188 161.328125 324.847656 160.609375 C 324.996094 160.386719 325.210938 160.226562 325.457031 160.148438 C 325.671875 159.414062 325.898438 158.667969 326.132812 157.902344 C 325.984375 158.070312 325.835938 158.238281 325.691406 158.40625 C 325.445312 158.695312 325.203125 159.027344 324.949219 159.378906 C 324.488281 160.015625 324.007812 160.675781 323.410156 161.175781 Z M 323.390625 166.082031 C 323.542969 166.082031 323.695312 166.117188 323.832031 166.179688 C 323.933594 165.769531 324.035156 165.351562 324.144531 164.929688 C 323.976562 165.097656 323.804688 165.269531 323.625 165.445312 C 323.429688 165.632812 323.210938 165.890625 322.976562 166.160156 C 323.109375 166.109375 323.25 166.082031 323.390625 166.082031 Z M 321.882812 172.1875 C 322.28125 172.1875 322.671875 172.382812 322.925781 172.6875 C 322.910156 171.519531 322.917969 170.328125 323.148438 169.226562 C 323.199219 168.980469 323.25 168.738281 323.304688 168.492188 C 322.523438 169.03125 321.859375 169.597656 321.3125 170.183594 C 321.199219 170.949219 321.109375 171.726562 321.03125 172.523438 C 321.273438 172.304688 321.566406 172.1875 321.882812 172.1875 Z M 320.589844 176.765625 C 320.523438 177.296875 320.441406 177.875 320.335938 178.480469 C 320.359375 178.464844 320.566406 178.316406 320.566406 178.316406 C 320.941406 178.050781 321.335938 177.761719 321.683594 177.421875 C 321.90625 177.203125 322.183594 177.089844 322.484375 177.089844 C 322.546875 177.089844 322.609375 177.09375 322.671875 177.105469 C 322.890625 176.179688 322.9375 175.171875 322.9375 174.160156 C 322.910156 174.195312 322.878906 174.234375 322.847656 174.265625 C 322.007812 175.132812 321.257812 175.921875 320.589844 176.765625 Z M 319.703125 181.214844 C 319.828125 181.113281 319.957031 181.011719 320.082031 180.90625 C 319.988281 180.898438 319.898438 180.875 319.808594 180.84375 C 319.773438 180.96875 319.738281 181.089844 319.703125 181.214844 Z M 303.160156 185.09375 C 304.089844 185.09375 305.03125 185.128906 305.941406 185.167969 C 306.636719 185.191406 307.335938 185.222656 308.03125 185.234375 L 308.144531 185.234375 C 308.503906 185.242188 308.882812 185.246094 309.269531 185.246094 C 311.429688 185.246094 313.816406 185.042969 315.164062 183.519531 C 317.078125 181.359375 317.421875 177.808594 317.71875 174.679688 C 317.777344 174.089844 317.832031 173.519531 317.894531 172.976562 C 317.828125 172.910156 317.769531 172.832031 317.722656 172.746094 C 317.257812 171.839844 317.5 170.730469 318.425781 169.53125 C 318.972656 166.574219 319.714844 163.773438 320.621094 160.433594 C 322.449219 153.699219 324.414062 145.75 325.113281 137.84375 C 325.4375 134.171875 325.65625 128.859375 323.929688 124.628906 C 323.851562 124.652344 323.769531 124.675781 323.691406 124.699219 C 323.597656 124.726562 323.5 124.738281 323.40625 124.738281 C 323.050781 124.738281 322.738281 124.550781 322.574219 124.230469 C 322.398438 123.894531 322.433594 123.488281 322.65625 123.175781 C 322.753906 123.039062 322.863281 122.90625 322.988281 122.761719 C 322.484375 121.933594 321.890625 121.191406 321.222656 120.558594 C 321.113281 120.453125 321 120.355469 320.886719 120.257812 L 320.84375 120.21875 C 320.707031 120.148438 320.585938 120.042969 320.492188 119.910156 C 319.835938 119.375 319.097656 118.878906 318.292969 118.4375 C 318.199219 118.402344 318.113281 118.355469 318.03125 118.292969 C 316.351562 117.40625 314.386719 116.734375 312.023438 116.234375 C 309.363281 115.667969 307.011719 115.390625 304.84375 115.390625 C 303.269531 115.390625 301.785156 115.542969 300.433594 115.84375 C 296.648438 116.679688 294.351562 118.609375 293.40625 121.742188 C 292.210938 125.710938 292.589844 130.050781 293.054688 133.386719 C 293.445312 136.203125 294.039062 139.035156 294.613281 141.777344 C 294.84375 142.875 295.074219 143.972656 295.292969 145.074219 C 295.765625 147.457031 296.128906 149.894531 296.480469 152.253906 C 296.746094 154.039062 297.023438 155.886719 297.34375 157.6875 C 297.605469 159.167969 297.886719 160.65625 298.171875 162.15625 C 299.597656 169.722656 301.070312 177.535156 300.433594 185.230469 C 301.253906 185.136719 302.136719 185.09375 303.160156 185.09375 Z M 313.246094 188.519531 C 312.910156 188.519531 312.582031 188.382812 312.324219 188.140625 C 311.296875 188.316406 310.148438 188.398438 308.734375 188.398438 C 307.671875 188.398438 306.59375 188.351562 305.550781 188.308594 C 304.519531 188.261719 303.546875 188.222656 302.605469 188.222656 C 301.492188 188.222656 300.621094 188.28125 299.859375 188.40625 C 299.765625 188.421875 299.675781 188.429688 299.589844 188.429688 C 298.949219 188.429688 298.453125 188.019531 298.296875 187.394531 C 298.078125 187.1875 297.960938 186.90625 297.96875 186.597656 C 298.195312 178.261719 296.644531 169.851562 295.140625 161.71875 C 294.90625 160.460938 294.675781 159.203125 294.449219 157.949219 C 294.140625 156.226562 293.875 154.46875 293.617188 152.769531 C 293.253906 150.371094 292.878906 147.882812 292.375 145.476562 C 292.195312 144.613281 292.007812 143.75 291.824219 142.886719 C 291.242188 140.1875 290.644531 137.394531 290.226562 134.613281 C 289.179688 127.597656 288.722656 119.027344 294.554688 115.035156 C 295.246094 114.558594 296.015625 114.140625 296.835938 113.785156 C 299.015625 112.421875 301.554688 111.546875 303.75 110.867188 C 307.410156 109.738281 310.519531 109.078125 313.507812 108.800781 C 313.734375 108.558594 314.03125 108.425781 314.347656 108.425781 C 314.355469 108.425781 314.394531 108.425781 314.402344 108.425781 C 314.929688 108.449219 315.488281 108.488281 316.054688 108.542969 C 316.574219 108.355469 317.042969 108.261719 317.488281 108.261719 C 317.609375 108.261719 317.730469 108.269531 317.851562 108.285156 C 318.09375 108.3125 318.296875 108.4375 318.421875 108.636719 C 318.464844 108.703125 318.5 108.777344 318.519531 108.851562 C 322.644531 109.515625 329.730469 111.425781 333.757812 116.859375 C 335.492188 119.199219 336.554688 122.027344 336.917969 125.273438 C 337.210938 125.472656 337.414062 125.796875 337.445312 126.144531 C 337.476562 126.492188 337.328125 126.8125 337.046875 127.027344 C 337.117188 129.007812 336.960938 131.121094 336.5625 133.460938 C 336.878906 133.550781 337.144531 133.800781 337.269531 134.148438 C 337.4375 134.605469 337.3125 135.101562 336.941406 135.410156 C 336.734375 135.589844 336.523438 135.773438 336.316406 135.953125 C 336.214844 136.042969 336.113281 136.132812 336.011719 136.222656 C 335.621094 137.914062 335.121094 139.71875 334.484375 141.738281 C 333.636719 144.414062 332.746094 147.121094 331.882812 149.738281 C 331.148438 151.96875 330.414062 154.191406 329.699219 156.425781 C 329.441406 157.230469 329.171875 158.050781 328.894531 158.878906 C 327.535156 162.953125 326.128906 167.167969 325.980469 171.246094 C 325.964844 171.738281 325.957031 172.242188 325.949219 172.75 C 325.898438 175.816406 325.839844 179.292969 323.484375 181.765625 C 322.3125 183 320.867188 184.183594 318.9375 185.484375 L 318.363281 185.878906 C 316.894531 186.878906 315.378906 187.914062 313.628906 188.460938 C 313.503906 188.5 313.375 188.519531 313.246094 188.519531 " fill-opacity="1" fill-rule="nonzero"/></g><g clip-path="url(#id2)"><path fill="#040606" d="M 308.003906 196.550781 C 307.800781 196.675781 307.589844 196.78125 307.386719 196.886719 C 307.273438 196.945312 307.164062 197 307.0625 197.054688 C 306.253906 197.496094 305.519531 197.964844 304.875 198.441406 C 304.199219 198.941406 303.46875 199.5 302.839844 200.113281 C 304.339844 199.726562 305.882812 199.46875 307.390625 199.21875 L 307.773438 199.15625 C 308.046875 199.109375 308.355469 199.046875 308.6875 198.980469 C 309.65625 198.789062 310.859375 198.550781 311.964844 198.550781 C 312.386719 198.550781 312.765625 198.585938 313.109375 198.652344 C 313.542969 197.925781 314.046875 197.242188 314.640625 196.570312 C 313.394531 196.648438 312.222656 196.707031 311.035156 196.707031 C 309.925781 196.707031 308.929688 196.65625 308.003906 196.550781 Z M 317.136719 200.015625 C 317.039062 200.273438 316.941406 200.53125 316.84375 200.78125 C 316.777344 200.949219 316.71875 201.117188 316.660156 201.285156 C 316.769531 201.085938 316.882812 200.886719 317 200.6875 C 317.050781 200.59375 317.117188 200.511719 317.1875 200.4375 C 317.171875 200.296875 317.152344 200.15625 317.136719 200.015625 Z M 317.699219 204.980469 C 317.808594 204.980469 317.917969 204.996094 318.019531 205.027344 C 317.957031 204.738281 317.894531 204.449219 317.835938 204.160156 C 317.703125 204.449219 317.585938 204.726562 317.472656 205 C 317.546875 204.988281 317.621094 204.980469 317.699219 204.980469 Z M 318.292969 209.101562 C 318.574219 209.101562 318.847656 209.199219 319.042969 209.371094 C 319.042969 209.371094 318.664062 207.804688 318.539062 207.289062 C 318.417969 207.871094 318.28125 208.492188 318.113281 209.117188 C 318.171875 209.105469 318.234375 209.101562 318.292969 209.101562 Z M 303.4375 204.332031 C 304.273438 207.074219 305.160156 210.246094 305.328125 213.574219 C 306.398438 213.246094 307.554688 213.085938 308.59375 212.945312 C 308.820312 212.914062 309.042969 212.882812 309.257812 212.851562 C 310.007812 212.742188 310.757812 212.640625 311.511719 212.542969 C 312.289062 212.4375 313.066406 212.335938 313.84375 212.222656 C 313.859375 210.496094 313.875 208.71875 313.773438 206.976562 C 313.765625 206.878906 313.761719 206.734375 313.753906 206.558594 C 313.71875 205.683594 313.625 203.230469 313.171875 202.097656 C 313.085938 202.121094 312.996094 202.132812 312.902344 202.132812 C 312.582031 202.132812 312.289062 201.988281 312.121094 201.753906 C 312.070312 201.679688 312.03125 201.605469 312.003906 201.523438 C 311.90625 201.519531 311.808594 201.519531 311.707031 201.519531 C 310.351562 201.519531 308.855469 201.832031 307.53125 202.109375 C 307.230469 202.171875 306.9375 202.234375 306.652344 202.292969 L 305.992188 202.421875 C 305.136719 202.585938 304.257812 202.757812 303.40625 202.976562 C 303.460938 203.132812 303.488281 203.304688 303.472656 203.480469 C 303.453125 203.726562 303.441406 204 303.4375 204.332031 Z M 304.148438 216.984375 C 303.726562 216.984375 303.34375 216.777344 303.105469 216.421875 C 302.902344 216.117188 302.824219 215.730469 302.875 215.367188 C 302.734375 215.214844 302.628906 215.023438 302.566406 214.804688 C 301.917969 212.558594 301.460938 210.238281 301.207031 207.917969 C 301.183594 207.71875 301.160156 207.511719 301.132812 207.292969 C 301.09375 206.996094 301.054688 206.683594 301.023438 206.367188 C 300.753906 205.460938 300.46875 204.554688 300.183594 203.648438 L 299.84375 202.5625 C 299.707031 202.121094 299.789062 201.664062 300.046875 201.300781 C 299.976562 201.132812 299.957031 200.941406 299.992188 200.742188 C 300.339844 198.886719 301.953125 197.511719 303.441406 196.367188 L 303.679688 196.183594 C 304.671875 195.410156 306.175781 194.234375 307.589844 194.234375 C 307.921875 194.234375 308.234375 194.300781 308.515625 194.429688 C 308.527344 194.4375 308.539062 194.441406 308.550781 194.449219 C 310.335938 194.210938 312.160156 194.074219 313.929688 193.941406 C 315.171875 193.851562 316.460938 193.753906 317.710938 193.625 C 318.003906 193.492188 318.296875 193.421875 318.578125 193.410156 C 318.867188 193.410156 319.128906 193.523438 319.3125 193.714844 C 319.476562 193.886719 319.5625 194.101562 319.558594 194.328125 C 319.65625 194.519531 319.707031 194.71875 319.699219 194.917969 C 319.554688 199.445312 320.59375 203.683594 321.695312 208.167969 C 321.828125 208.710938 321.960938 209.253906 322.09375 209.796875 C 322.242188 210.425781 322.042969 210.984375 321.527344 211.378906 L 321.035156 211.757812 C 319.847656 212.667969 318.617188 213.609375 317.308594 214.421875 C 317.066406 214.570312 316.804688 214.648438 316.539062 214.648438 C 316.441406 214.648438 316.347656 214.636719 316.253906 214.617188 C 316.035156 214.789062 315.761719 214.910156 315.449219 214.964844 C 314.347656 215.160156 313.226562 215.316406 312.140625 215.46875 C 311.273438 215.589844 310.378906 215.714844 309.503906 215.859375 C 308.722656 215.988281 307.929688 216.183594 307.164062 216.375 C 306.246094 216.605469 305.296875 216.84375 304.335938 216.972656 C 304.269531 216.980469 304.210938 216.984375 304.148438 216.984375 " fill-opacity="1" fill-rule="nonzero"/></g><path fill="#040606" d="M 329.71875 137.816406 C 329.671875 137.816406 329.625 137.816406 329.574219 137.808594 C 329.207031 137.773438 328.96875 137.488281 328.871094 137.230469 C 328.515625 136.320312 329.296875 135.546875 329.816406 135.035156 C 329.902344 134.949219 329.984375 134.871094 330.050781 134.796875 C 330.742188 134.054688 331.46875 133.335938 332.214844 132.605469 C 332.425781 132.398438 332.695312 132.285156 332.980469 132.285156 C 333.425781 132.285156 333.859375 132.570312 334.03125 132.980469 C 334.191406 133.359375 334.105469 133.773438 333.800781 134.082031 L 333.5625 134.320312 C 332.941406 134.949219 332.300781 135.601562 331.707031 136.269531 C 331.605469 136.386719 331.507812 136.515625 331.40625 136.652344 C 331.019531 137.171875 330.53125 137.816406 329.71875 137.816406 " fill-opacity="1" fill-rule="nonzero"/><g fill="#ffde59" fill-opacity="0.302"><g transform="translate(44.518377, 179.900686)"><g><path d="M 44.734375 -9.4375 C 44.835938 -9.507812 44.988281 -9.546875 45.1875 -9.546875 C 45.382812 -9.546875 45.554688 -9.492188 45.703125 -9.390625 C 45.847656 -9.285156 45.875 -9.132812 45.78125 -8.9375 C 44.601562 -6.675781 42.929688 -4.222656 40.765625 -1.578125 C 38.609375 1.054688 36.488281 3.445312 34.40625 5.59375 C 32.320312 7.75 30.800781 9.226562 29.84375 10.03125 C 27.59375 11.976562 25.054688 13.6875 22.234375 15.15625 C 20.765625 15.925781 19.203125 16.566406 17.546875 17.078125 C 15.617188 17.660156 13.554688 17.859375 11.359375 17.671875 C 8.515625 17.453125 6.207031 16.363281 4.4375 14.40625 C 3.238281 13.039062 2.472656 11.570312 2.140625 10 C 1.453125 6.914062 1.585938 3.96875 2.546875 1.15625 C 3.296875 -1.25 4.347656 -3.503906 5.703125 -5.609375 C 7.066406 -7.710938 8.664062 -9.707031 10.5 -11.59375 C 13.132812 -14.300781 16.132812 -16.742188 19.5 -18.921875 C 19.59375 -18.984375 19.6875 -19.035156 19.78125 -19.078125 C 19.945312 -19.171875 20.101562 -19.273438 20.25 -19.390625 C 20.394531 -19.515625 20.488281 -19.695312 20.53125 -19.9375 C 18.695312 -20.519531 17.3125 -21.1875 16.375 -21.9375 C 15.445312 -22.695312 14.828125 -23.523438 14.515625 -24.421875 C 14.203125 -25.316406 14.046875 -26.253906 14.046875 -27.234375 C 14.066406 -28.628906 14.351562 -29.96875 14.90625 -31.25 C 15.757812 -33.363281 16.960938 -35.316406 18.515625 -37.109375 C 20.410156 -39.421875 22.582031 -41.5625 25.03125 -43.53125 C 26.15625 -44.507812 27.460938 -45.320312 28.953125 -45.96875 C 30.085938 -46.4375 31.328125 -46.585938 32.671875 -46.421875 C 33.578125 -46.335938 34.296875 -46.0625 34.828125 -45.59375 C 35.367188 -45.125 35.648438 -44.550781 35.671875 -43.875 C 35.671875 -43.019531 35.53125 -42.222656 35.25 -41.484375 C 34.800781 -40.367188 34.273438 -39.28125 33.671875 -38.21875 C 33.117188 -37.21875 32.554688 -36.226562 31.984375 -35.25 C 31.722656 -34.800781 31.460938 -34.359375 31.203125 -33.921875 C 31.015625 -33.566406 30.785156 -33.332031 30.515625 -33.21875 C 30.253906 -33.113281 29.863281 -33.09375 29.34375 -33.15625 C 29.019531 -33.21875 28.757812 -33.335938 28.5625 -33.515625 C 28.363281 -33.691406 28.296875 -33.890625 28.359375 -34.109375 C 28.484375 -34.609375 28.671875 -35.078125 28.921875 -35.515625 C 29.367188 -36.316406 29.820312 -37.101562 30.28125 -37.875 C 30.53125 -38.300781 30.773438 -38.726562 31.015625 -39.15625 C 31.617188 -40.1875 32.070312 -41.28125 32.375 -42.4375 C 32.53125 -42.988281 32.566406 -43.554688 32.484375 -44.140625 C 32.410156 -44.472656 32.242188 -44.703125 31.984375 -44.828125 C 31.722656 -44.960938 31.425781 -44.957031 31.09375 -44.8125 C 30.351562 -44.476562 29.671875 -44.085938 29.046875 -43.640625 C 25.109375 -40.722656 21.882812 -37.351562 19.375 -33.53125 C 18.09375 -31.59375 17.367188 -29.472656 17.203125 -27.171875 C 17.097656 -25.953125 17.429688 -24.742188 18.203125 -23.546875 C 18.867188 -22.609375 19.820312 -21.914062 21.0625 -21.46875 C 22.195312 -21.03125 23.296875 -21.03125 24.359375 -21.46875 C 25.484375 -21.96875 26.691406 -22.375 27.984375 -22.6875 C 29.191406 -23.019531 30.46875 -23.082031 31.8125 -22.875 C 32.28125 -22.800781 32.625 -22.601562 32.84375 -22.28125 C 33.019531 -21.925781 32.941406 -21.632812 32.609375 -21.40625 C 32.054688 -21.070312 31.46875 -20.796875 30.84375 -20.578125 C 29.5 -20.097656 28.050781 -19.820312 26.5 -19.75 C 25.582031 -19.726562 24.796875 -19.503906 24.140625 -19.078125 C 19.984375 -16.660156 16.398438 -13.890625 13.390625 -10.765625 C 10.390625 -7.640625 8.046875 -4.101562 6.359375 -0.15625 C 5.679688 1.457031 5.253906 3.117188 5.078125 4.828125 C 4.898438 6.535156 5.03125 8.289062 5.46875 10.09375 C 5.769531 11.5625 6.503906 12.914062 7.671875 14.15625 C 9.328125 15.925781 11.394531 16.601562 13.875 16.1875 C 15.375 15.9375 16.753906 15.507812 18.015625 14.90625 C 20.316406 13.851562 22.628906 12.492188 24.953125 10.828125 C 27.285156 9.160156 29.457031 7.382812 31.46875 5.5 C 33.488281 3.613281 35.222656 1.804688 36.671875 0.078125 C 37.535156 -0.941406 38.625 -2.21875 39.9375 -3.75 C 41.84375 -5.988281 43.441406 -7.882812 44.734375 -9.4375 Z M 44.734375 -9.4375 "/></g></g></g><g fill="#ffde59" fill-opacity="0.302"><g transform="translate(88.224906, 179.900686)"><g><path d="M 52.78125 -44.5625 C 54.925781 -43.164062 56.484375 -41.425781 57.453125 -39.34375 C 58.421875 -37.257812 58.734375 -35.050781 58.390625 -32.71875 C 57.921875 -29.875 56.882812 -27.335938 55.28125 -25.109375 C 53.6875 -22.890625 51.859375 -20.898438 49.796875 -19.140625 C 48.085938 -17.679688 46.3125 -16.316406 44.46875 -15.046875 C 42.632812 -13.785156 40.75 -12.59375 38.8125 -11.46875 C 36.289062 -9.976562 33.734375 -8.523438 31.140625 -7.109375 C 30.003906 -6.484375 28.875 -5.863281 27.75 -5.25 C 27.695312 -5.195312 27.640625 -5.148438 27.578125 -5.109375 C 27.421875 -5.015625 27.265625 -4.953125 27.109375 -4.921875 C 26.460938 -4.691406 26.019531 -4.367188 25.78125 -3.953125 C 25.539062 -3.546875 25.414062 -3.070312 25.40625 -2.53125 C 25.394531 -1.988281 25.421875 -1.425781 25.484375 -0.84375 C 25.503906 -0.5625 25.660156 -0.363281 25.953125 -0.25 C 26.265625 -0.144531 26.585938 -0.0546875 26.921875 0.015625 C 28.378906 0.328125 29.835938 0.625 31.296875 0.90625 C 33.734375 1.414062 36.1875 1.925781 38.65625 2.4375 C 41.363281 2.988281 44.066406 3.554688 46.765625 4.140625 C 48.410156 4.492188 50.066406 4.847656 51.734375 5.203125 C 52.191406 5.316406 52.644531 5.40625 53.09375 5.46875 C 53.601562 5.582031 54.113281 5.695312 54.625 5.8125 C 55 5.863281 55.375 5.972656 55.75 6.140625 C 55.863281 6.203125 55.957031 6.28125 56.03125 6.375 C 56.113281 6.476562 56.140625 6.609375 56.109375 6.765625 C 56.085938 6.898438 56.039062 6.984375 55.96875 7.015625 C 55.894531 7.046875 55.8125 7.0625 55.71875 7.0625 C 55.40625 7.082031 55.082031 7.0625 54.75 7 C 53.363281 6.757812 51.96875 6.53125 50.5625 6.3125 C 48.238281 5.945312 45.910156 5.519531 43.578125 5.03125 C 39.828125 4.238281 36.078125 3.453125 32.328125 2.671875 C 31.535156 2.515625 30.726562 2.347656 29.90625 2.171875 C 28.707031 1.898438 27.488281 1.671875 26.25 1.484375 C 25.71875 1.367188 25.453125 1.597656 25.453125 2.171875 C 25.429688 2.566406 25.421875 2.957031 25.421875 3.34375 C 25.421875 3.539062 25.421875 3.738281 25.421875 3.9375 C 25.347656 10.414062 25.28125 16.898438 25.21875 23.390625 C 25.21875 23.460938 25.21875 23.546875 25.21875 23.640625 C 25.21875 23.878906 25.203125 24.117188 25.171875 24.359375 C 25.128906 24.960938 24.796875 25.21875 24.171875 25.125 C 23.546875 25.039062 23.195312 24.710938 23.125 24.140625 C 23.082031 23.847656 23.070312 23.554688 23.09375 23.265625 C 23.09375 23.222656 23.09375 23.191406 23.09375 23.171875 C 23.070312 19.753906 23.035156 16.390625 22.984375 13.078125 C 22.941406 9.734375 22.921875 6.332031 22.921875 2.875 C 22.921875 2.71875 22.921875 2.550781 22.921875 2.375 C 22.898438 2.082031 22.898438 1.796875 22.921875 1.515625 C 22.941406 0.992188 22.710938 0.625 22.234375 0.40625 C 22.179688 0.382812 22.125 0.363281 22.0625 0.34375 C 21.675781 0.1875 21.304688 -0.00390625 20.953125 -0.234375 C 19.921875 -0.910156 19.679688 -1.738281 20.234375 -2.71875 C 20.648438 -3.40625 21.203125 -3.945312 21.890625 -4.34375 C 22.304688 -4.5625 22.585938 -4.847656 22.734375 -5.203125 C 22.878906 -5.566406 22.953125 -6 22.953125 -6.5 C 22.929688 -12.132812 22.929688 -17.769531 22.953125 -23.40625 C 22.953125 -24.78125 22.953125 -26.15625 22.953125 -27.53125 C 22.953125 -27.59375 22.953125 -27.671875 22.953125 -27.765625 C 22.953125 -28.273438 22.960938 -28.773438 22.984375 -29.265625 C 23.054688 -29.890625 23.46875 -30.144531 24.21875 -30.03125 C 24.945312 -29.9375 25.320312 -29.554688 25.34375 -28.890625 C 25.34375 -28.492188 25.34375 -28.109375 25.34375 -27.734375 C 25.34375 -27.597656 25.34375 -27.46875 25.34375 -27.34375 C 25.375 -24.257812 25.390625 -21.179688 25.390625 -18.109375 C 25.390625 -15.078125 25.398438 -12.039062 25.421875 -9 C 25.421875 -8.976562 25.421875 -8.957031 25.421875 -8.9375 C 25.421875 -8.425781 25.429688 -7.925781 25.453125 -7.4375 C 25.492188 -6.957031 25.75 -6.800781 26.21875 -6.96875 C 26.375 -7.039062 26.523438 -7.125 26.671875 -7.21875 C 26.703125 -7.21875 26.71875 -7.21875 26.71875 -7.21875 C 29.457031 -8.675781 32.175781 -10.191406 34.875 -11.765625 C 37.570312 -13.335938 40.195312 -15.019531 42.75 -16.8125 C 44.5 -18.03125 46.171875 -19.34375 47.765625 -20.75 C 49.367188 -22.164062 50.820312 -23.738281 52.125 -25.46875 C 53.539062 -27.3125 54.570312 -29.378906 55.21875 -31.671875 C 55.644531 -33.171875 55.757812 -34.75 55.5625 -36.40625 C 55.207031 -38.9375 54.019531 -41.082031 52 -42.84375 C 51.039062 -43.65625 50.007812 -44.3125 48.90625 -44.8125 C 44.84375 -46.707031 40.773438 -47.675781 36.703125 -47.71875 C 32.640625 -47.769531 28.726562 -47.113281 24.96875 -45.75 C 21.207031 -44.382812 17.765625 -42.523438 14.640625 -40.171875 C 11.515625 -37.828125 8.84375 -35.195312 6.625 -32.28125 C 5.757812 -31.28125 5.003906 -30.195312 4.359375 -29.03125 C 3.910156 -28.289062 3.515625 -27.53125 3.171875 -26.75 C 2.828125 -25.976562 2.601562 -25.140625 2.5 -24.234375 C 2.476562 -24.015625 2.394531 -23.859375 2.25 -23.765625 C 2.101562 -23.679688 1.925781 -23.65625 1.71875 -23.6875 C 1.457031 -23.6875 1.207031 -23.722656 0.96875 -23.796875 C 0.457031 -23.984375 0.191406 -24.34375 0.171875 -24.875 C 0.148438 -25.582031 0.269531 -26.257812 0.53125 -26.90625 C 1.394531 -29.300781 2.648438 -31.441406 4.296875 -33.328125 C 6.828125 -36.285156 9.8125 -38.957031 13.25 -41.34375 C 16.6875 -43.726562 20.414062 -45.613281 24.4375 -47 C 28.457031 -48.382812 32.617188 -49.0625 36.921875 -49.03125 C 41.234375 -49.007812 45.515625 -48.070312 49.765625 -46.21875 C 50.816406 -45.757812 51.820312 -45.207031 52.78125 -44.5625 Z M 52.78125 -44.5625 "/></g></g></g><g fill="#ffde59" fill-opacity="0.302"><g transform="translate(135.273704, 179.900686)"><g><path d="M 52.78125 -44.5625 C 54.925781 -43.164062 56.484375 -41.425781 57.453125 -39.34375 C 58.421875 -37.257812 58.734375 -35.050781 58.390625 -32.71875 C 57.921875 -29.875 56.882812 -27.335938 55.28125 -25.109375 C 53.6875 -22.890625 51.859375 -20.898438 49.796875 -19.140625 C 48.085938 -17.679688 46.3125 -16.316406 44.46875 -15.046875 C 42.632812 -13.785156 40.75 -12.59375 38.8125 -11.46875 C 36.289062 -9.976562 33.734375 -8.523438 31.140625 -7.109375 C 30.003906 -6.484375 28.875 -5.863281 27.75 -5.25 C 27.695312 -5.195312 27.640625 -5.148438 27.578125 -5.109375 C 27.421875 -5.015625 27.265625 -4.953125 27.109375 -4.921875 C 26.460938 -4.691406 26.019531 -4.367188 25.78125 -3.953125 C 25.539062 -3.546875 25.414062 -3.070312 25.40625 -2.53125 C 25.394531 -1.988281 25.421875 -1.425781 25.484375 -0.84375 C 25.503906 -0.5625 25.660156 -0.363281 25.953125 -0.25 C 26.265625 -0.144531 26.585938 -0.0546875 26.921875 0.015625 C 28.378906 0.328125 29.835938 0.625 31.296875 0.90625 C 33.734375 1.414062 36.1875 1.925781 38.65625 2.4375 C 41.363281 2.988281 44.066406 3.554688 46.765625 4.140625 C 48.410156 4.492188 50.066406 4.847656 51.734375 5.203125 C 52.191406 5.316406 52.644531 5.40625 53.09375 5.46875 C 53.601562 5.582031 54.113281 5.695312 54.625 5.8125 C 55 5.863281 55.375 5.972656 55.75 6.140625 C 55.863281 6.203125 55.957031 6.28125 56.03125 6.375 C 56.113281 6.476562 56.140625 6.609375 56.109375 6.765625 C 56.085938 6.898438 56.039062 6.984375 55.96875 7.015625 C 55.894531 7.046875 55.8125 7.0625 55.71875 7.0625 C 55.40625 7.082031 55.082031 7.0625 54.75 7 C 53.363281 6.757812 51.96875 6.53125 50.5625 6.3125 C 48.238281 5.945312 45.910156 5.519531 43.578125 5.03125 C 39.828125 4.238281 36.078125 3.453125 32.328125 2.671875 C 31.535156 2.515625 30.726562 2.347656 29.90625 2.171875 C 28.707031 1.898438 27.488281 1.671875 26.25 1.484375 C 25.71875 1.367188 25.453125 1.597656 25.453125 2.171875 C 25.429688 2.566406 25.421875 2.957031 25.421875 3.34375 C 25.421875 3.539062 25.421875 3.738281 25.421875 3.9375 C 25.347656 10.414062 25.28125 16.898438 25.21875 23.390625 C 25.21875 23.460938 25.21875 23.546875 25.21875 23.640625 C 25.21875 23.878906 25.203125 24.117188 25.171875 24.359375 C 25.128906 24.960938 24.796875 25.21875 24.171875 25.125 C 23.546875 25.039062 23.195312 24.710938 23.125 24.140625 C 23.082031 23.847656 23.070312 23.554688 23.09375 23.265625 C 23.09375 23.222656 23.09375 23.191406 23.09375 23.171875 C 23.070312 19.753906 23.035156 16.390625 22.984375 13.078125 C 22.941406 9.734375 22.921875 6.332031 22.921875 2.875 C 22.921875 2.71875 22.921875 2.550781 22.921875 2.375 C 22.898438 2.082031 22.898438 1.796875 22.921875 1.515625 C 22.941406 0.992188 22.710938 0.625 22.234375 0.40625 C 22.179688 0.382812 22.125 0.363281 22.0625 0.34375 C 21.675781 0.1875 21.304688 -0.00390625 20.953125 -0.234375 C 19.921875 -0.910156 19.679688 -1.738281 20.234375 -2.71875 C 20.648438 -3.40625 21.203125 -3.945312 21.890625 -4.34375 C 22.304688 -4.5625 22.585938 -4.847656 22.734375 -5.203125 C 22.878906 -5.566406 22.953125 -6 22.953125 -6.5 C 22.929688 -12.132812 22.929688 -17.769531 22.953125 -23.40625 C 22.953125 -24.78125 22.953125 -26.15625 22.953125 -27.53125 C 22.953125 -27.59375 22.953125 -27.671875 22.953125 -27.765625 C 22.953125 -28.273438 22.960938 -28.773438 22.984375 -29.265625 C 23.054688 -29.890625 23.46875 -30.144531 24.21875 -30.03125 C 24.945312 -29.9375 25.320312 -29.554688 25.34375 -28.890625 C 25.34375 -28.492188 25.34375 -28.109375 25.34375 -27.734375 C 25.34375 -27.597656 25.34375 -27.46875 25.34375 -27.34375 C 25.375 -24.257812 25.390625 -21.179688 25.390625 -18.109375 C 25.390625 -15.078125 25.398438 -12.039062 25.421875 -9 C 25.421875 -8.976562 25.421875 -8.957031 25.421875 -8.9375 C 25.421875 -8.425781 25.429688 -7.925781 25.453125 -7.4375 C 25.492188 -6.957031 25.75 -6.800781 26.21875 -6.96875 C 26.375 -7.039062 26.523438 -7.125 26.671875 -7.21875 C 26.703125 -7.21875 26.71875 -7.21875 26.71875 -7.21875 C 29.457031 -8.675781 32.175781 -10.191406 34.875 -11.765625 C 37.570312 -13.335938 40.195312 -15.019531 42.75 -16.8125 C 44.5 -18.03125 46.171875 -19.34375 47.765625 -20.75 C 49.367188 -22.164062 50.820312 -23.738281 52.125 -25.46875 C 53.539062 -27.3125 54.570312 -29.378906 55.21875 -31.671875 C 55.644531 -33.171875 55.757812 -34.75 55.5625 -36.40625 C 55.207031 -38.9375 54.019531 -41.082031 52 -42.84375 C 51.039062 -43.65625 50.007812 -44.3125 48.90625 -44.8125 C 44.84375 -46.707031 40.773438 -47.675781 36.703125 -47.71875 C 32.640625 -47.769531 28.726562 -47.113281 24.96875 -45.75 C 21.207031 -44.382812 17.765625 -42.523438 14.640625 -40.171875 C 11.515625 -37.828125 8.84375 -35.195312 6.625 -32.28125 C 5.757812 -31.28125 5.003906 -30.195312 4.359375 -29.03125 C 3.910156 -28.289062 3.515625 -27.53125 3.171875 -26.75 C 2.828125 -25.976562 2.601562 -25.140625 2.5 -24.234375 C 2.476562 -24.015625 2.394531 -23.859375 2.25 -23.765625 C 2.101562 -23.679688 1.925781 -23.65625 1.71875 -23.6875 C 1.457031 -23.6875 1.207031 -23.722656 0.96875 -23.796875 C 0.457031 -23.984375 0.191406 -24.34375 0.171875 -24.875 C 0.148438 -25.582031 0.269531 -26.257812 0.53125 -26.90625 C 1.394531 -29.300781 2.648438 -31.441406 4.296875 -33.328125 C 6.828125 -36.285156 9.8125 -38.957031 13.25 -41.34375 C 16.6875 -43.726562 20.414062 -45.613281 24.4375 -47 C 28.457031 -48.382812 32.617188 -49.0625 36.921875 -49.03125 C 41.234375 -49.007812 45.515625 -48.070312 49.765625 -46.21875 C 50.816406 -45.757812 51.820312 -45.207031 52.78125 -44.5625 Z M 52.78125 -44.5625 "/></g></g></g><g fill="#ffde59" fill-opacity="0.302"><g transform="translate(182.322502, 179.900686)"><g><path d="M 35.03125 -32.78125 C 35.59375 -29.988281 35.945312 -26.644531 36.09375 -22.75 C 36.132812 -19.820312 35.90625 -16.738281 35.40625 -13.5 C 34.90625 -10.257812 34.003906 -7.019531 32.703125 -3.78125 C 31.878906 -1.875 30.914062 -0.0546875 29.8125 1.671875 C 28.71875 3.398438 27.421875 4.984375 25.921875 6.421875 C 24.753906 7.566406 23.46875 8.507812 22.0625 9.25 C 20.507812 10.082031 18.832031 10.578125 17.03125 10.734375 C 15.226562 10.890625 13.453125 10.640625 11.703125 9.984375 C 9.960938 9.328125 8.367188 8.195312 6.921875 6.59375 C 5.609375 5.070312 4.53125 3.398438 3.6875 1.578125 C 1.78125 -2.640625 0.660156 -7.039062 0.328125 -11.625 C 0.109375 -14.375 0.171875 -17.097656 0.515625 -19.796875 C 0.859375 -22.492188 1.53125 -25.148438 2.53125 -27.765625 C 2.925781 -28.847656 3.394531 -29.898438 3.9375 -30.921875 C 4.269531 -31.523438 4.296875 -32.132812 4.015625 -32.75 C 3.085938 -34.96875 2.535156 -37.273438 2.359375 -39.671875 C 2.203125 -42.003906 2.550781 -44.195312 3.40625 -46.25 C 4.257812 -48.300781 5.453125 -50.046875 6.984375 -51.484375 C 8.515625 -52.929688 10.234375 -53.90625 12.140625 -54.40625 C 16.773438 -55.601562 21.046875 -54.796875 24.953125 -51.984375 C 27.367188 -50.210938 29.289062 -47.992188 30.71875 -45.328125 C 31.769531 -43.359375 32.640625 -41.320312 33.328125 -39.21875 C 34.023438 -37.125 34.59375 -34.976562 35.03125 -32.78125 Z M 30.796875 -5.875 C 31.703125 -8.425781 32.359375 -11.007812 32.765625 -13.625 C 33.171875 -16.25 33.394531 -18.863281 33.4375 -21.46875 C 33.4375 -26.90625 32.691406 -32.164062 31.203125 -37.25 C 30.734375 -38.820312 30.179688 -40.363281 29.546875 -41.875 C 28.921875 -43.382812 28.15625 -44.832031 27.25 -46.21875 C 26.425781 -47.507812 25.46875 -48.671875 24.375 -49.703125 C 23.289062 -50.734375 22.050781 -51.597656 20.65625 -52.296875 C 19.007812 -53.109375 17.367188 -53.507812 15.734375 -53.5 C 14.097656 -53.488281 12.503906 -52.945312 10.953125 -51.875 C 8.972656 -50.53125 7.484375 -48.90625 6.484375 -47 C 5.484375 -45.09375 5.03125 -42.941406 5.125 -40.546875 C 5.34375 -34.441406 7.757812 -29.359375 12.375 -25.296875 C 13.84375 -23.992188 15.40625 -22.863281 17.0625 -21.90625 C 18.726562 -20.945312 20.503906 -20.207031 22.390625 -19.6875 C 22.472656 -19.65625 22.5625 -19.628906 22.65625 -19.609375 C 22.832031 -19.585938 23.003906 -19.546875 23.171875 -19.484375 C 23.335938 -19.421875 23.488281 -19.320312 23.625 -19.1875 C 23.6875 -19.113281 23.734375 -19.023438 23.765625 -18.921875 C 23.796875 -18.828125 23.8125 -18.734375 23.8125 -18.640625 C 23.789062 -18.578125 23.753906 -18.5 23.703125 -18.40625 C 23.648438 -18.320312 23.585938 -18.257812 23.515625 -18.21875 C 23.140625 -18.019531 22.765625 -18.007812 22.390625 -18.1875 C 21.785156 -18.46875 21.160156 -18.691406 20.515625 -18.859375 C 20.410156 -18.878906 20.316406 -18.898438 20.234375 -18.921875 C 14.523438 -20.453125 9.929688 -23.578125 6.453125 -28.296875 C 6.398438 -28.359375 6.359375 -28.425781 6.328125 -28.5 C 6.253906 -28.65625 6.160156 -28.78125 6.046875 -28.875 C 5.929688 -28.976562 5.789062 -29.003906 5.625 -28.953125 C 5.488281 -28.929688 5.394531 -28.867188 5.34375 -28.765625 C 5.289062 -28.671875 5.25 -28.554688 5.21875 -28.421875 C 5.195312 -28.335938 5.164062 -28.265625 5.125 -28.203125 C 5.050781 -28.035156 4.992188 -27.867188 4.953125 -27.703125 C 4.929688 -27.628906 4.898438 -27.546875 4.859375 -27.453125 C 3.460938 -23.460938 2.738281 -19.46875 2.6875 -15.46875 C 2.644531 -11.46875 3.226562 -7.453125 4.4375 -3.421875 C 4.84375 -1.972656 5.347656 -0.582031 5.953125 0.75 C 6.566406 2.09375 7.3125 3.375 8.1875 4.59375 C 9.195312 6.039062 10.457031 7.222656 11.96875 8.140625 C 14.15625 9.460938 16.441406 9.679688 18.828125 8.796875 C 20.203125 8.242188 21.46875 7.5 22.625 6.5625 C 23.726562 5.65625 24.722656 4.644531 25.609375 3.53125 C 26.742188 2.113281 27.738281 0.613281 28.59375 -0.96875 C 29.445312 -2.550781 30.179688 -4.1875 30.796875 -5.875 Z M 30.796875 -5.875 "/></g></g></g><g fill="#ffde59" fill-opacity="0.302"><g transform="translate(220.509008, 179.900686)"><g><path d="M 52.78125 -44.5625 C 54.925781 -43.164062 56.484375 -41.425781 57.453125 -39.34375 C 58.421875 -37.257812 58.734375 -35.050781 58.390625 -32.71875 C 57.921875 -29.875 56.882812 -27.335938 55.28125 -25.109375 C 53.6875 -22.890625 51.859375 -20.898438 49.796875 -19.140625 C 48.085938 -17.679688 46.3125 -16.316406 44.46875 -15.046875 C 42.632812 -13.785156 40.75 -12.59375 38.8125 -11.46875 C 36.289062 -9.976562 33.734375 -8.523438 31.140625 -7.109375 C 30.003906 -6.484375 28.875 -5.863281 27.75 -5.25 C 27.695312 -5.195312 27.640625 -5.148438 27.578125 -5.109375 C 27.421875 -5.015625 27.265625 -4.953125 27.109375 -4.921875 C 26.460938 -4.691406 26.019531 -4.367188 25.78125 -3.953125 C 25.539062 -3.546875 25.414062 -3.070312 25.40625 -2.53125 C 25.394531 -1.988281 25.421875 -1.425781 25.484375 -0.84375 C 25.503906 -0.5625 25.660156 -0.363281 25.953125 -0.25 C 26.265625 -0.144531 26.585938 -0.0546875 26.921875 0.015625 C 28.378906 0.328125 29.835938 0.625 31.296875 0.90625 C 33.734375 1.414062 36.1875 1.925781 38.65625 2.4375 C 41.363281 2.988281 44.066406 3.554688 46.765625 4.140625 C 48.410156 4.492188 50.066406 4.847656 51.734375 5.203125 C 52.191406 5.316406 52.644531 5.40625 53.09375 5.46875 C 53.601562 5.582031 54.113281 5.695312 54.625 5.8125 C 55 5.863281 55.375 5.972656 55.75 6.140625 C 55.863281 6.203125 55.957031 6.28125 56.03125 6.375 C 56.113281 6.476562 56.140625 6.609375 56.109375 6.765625 C 56.085938 6.898438 56.039062 6.984375 55.96875 7.015625 C 55.894531 7.046875 55.8125 7.0625 55.71875 7.0625 C 55.40625 7.082031 55.082031 7.0625 54.75 7 C 53.363281 6.757812 51.96875 6.53125 50.5625 6.3125 C 48.238281 5.945312 45.910156 5.519531 43.578125 5.03125 C 39.828125 4.238281 36.078125 3.453125 32.328125 2.671875 C 31.535156 2.515625 30.726562 2.347656 29.90625 2.171875 C 28.707031 1.898438 27.488281 1.671875 26.25 1.484375 C 25.71875 1.367188 25.453125 1.597656 25.453125 2.171875 C 25.429688 2.566406 25.421875 2.957031 25.421875 3.34375 C 25.421875 3.539062 25.421875 3.738281 25.421875 3.9375 C 25.347656 10.414062 25.28125 16.898438 25.21875 23.390625 C 25.21875 23.460938 25.21875 23.546875 25.21875 23.640625 C 25.21875 23.878906 25.203125 24.117188 25.171875 24.359375 C 25.128906 24.960938 24.796875 25.21875 24.171875 25.125 C 23.546875 25.039062 23.195312 24.710938 23.125 24.140625 C 23.082031 23.847656 23.070312 23.554688 23.09375 23.265625 C 23.09375 23.222656 23.09375 23.191406 23.09375 23.171875 C 23.070312 19.753906 23.035156 16.390625 22.984375 13.078125 C 22.941406 9.734375 22.921875 6.332031 22.921875 2.875 C 22.921875 2.71875 22.921875 2.550781 22.921875 2.375 C 22.898438 2.082031 22.898438 1.796875 22.921875 1.515625 C 22.941406 0.992188 22.710938 0.625 22.234375 0.40625 C 22.179688 0.382812 22.125 0.363281 22.0625 0.34375 C 21.675781 0.1875 21.304688 -0.00390625 20.953125 -0.234375 C 19.921875 -0.910156 19.679688 -1.738281 20.234375 -2.71875 C 20.648438 -3.40625 21.203125 -3.945312 21.890625 -4.34375 C 22.304688 -4.5625 22.585938 -4.847656 22.734375 -5.203125 C 22.878906 -5.566406 22.953125 -6 22.953125 -6.5 C 22.929688 -12.132812 22.929688 -17.769531 22.953125 -23.40625 C 22.953125 -24.78125 22.953125 -26.15625 22.953125 -27.53125 C 22.953125 -27.59375 22.953125 -27.671875 22.953125 -27.765625 C 22.953125 -28.273438 22.960938 -28.773438 22.984375 -29.265625 C 23.054688 -29.890625 23.46875 -30.144531 24.21875 -30.03125 C 24.945312 -29.9375 25.320312 -29.554688 25.34375 -28.890625 C 25.34375 -28.492188 25.34375 -28.109375 25.34375 -27.734375 C 25.34375 -27.597656 25.34375 -27.46875 25.34375 -27.34375 C 25.375 -24.257812 25.390625 -21.179688 25.390625 -18.109375 C 25.390625 -15.078125 25.398438 -12.039062 25.421875 -9 C 25.421875 -8.976562 25.421875 -8.957031 25.421875 -8.9375 C 25.421875 -8.425781 25.429688 -7.925781 25.453125 -7.4375 C 25.492188 -6.957031 25.75 -6.800781 26.21875 -6.96875 C 26.375 -7.039062 26.523438 -7.125 26.671875 -7.21875 C 26.703125 -7.21875 26.71875 -7.21875 26.71875 -7.21875 C 29.457031 -8.675781 32.175781 -10.191406 34.875 -11.765625 C 37.570312 -13.335938 40.195312 -15.019531 42.75 -16.8125 C 44.5 -18.03125 46.171875 -19.34375 47.765625 -20.75 C 49.367188 -22.164062 50.820312 -23.738281 52.125 -25.46875 C 53.539062 -27.3125 54.570312 -29.378906 55.21875 -31.671875 C 55.644531 -33.171875 55.757812 -34.75 55.5625 -36.40625 C 55.207031 -38.9375 54.019531 -41.082031 52 -42.84375 C 51.039062 -43.65625 50.007812 -44.3125 48.90625 -44.8125 C 44.84375 -46.707031 40.773438 -47.675781 36.703125 -47.71875 C 32.640625 -47.769531 28.726562 -47.113281 24.96875 -45.75 C 21.207031 -44.382812 17.765625 -42.523438 14.640625 -40.171875 C 11.515625 -37.828125 8.84375 -35.195312 6.625 -32.28125 C 5.757812 -31.28125 5.003906 -30.195312 4.359375 -29.03125 C 3.910156 -28.289062 3.515625 -27.53125 3.171875 -26.75 C 2.828125 -25.976562 2.601562 -25.140625 2.5 -24.234375 C 2.476562 -24.015625 2.394531 -23.859375 2.25 -23.765625 C 2.101562 -23.679688 1.925781 -23.65625 1.71875 -23.6875 C 1.457031 -23.6875 1.207031 -23.722656 0.96875 -23.796875 C 0.457031 -23.984375 0.191406 -24.34375 0.171875 -24.875 C 0.148438 -25.582031 0.269531 -26.257812 0.53125 -26.90625 C 1.394531 -29.300781 2.648438 -31.441406 4.296875 -33.328125 C 6.828125 -36.285156 9.8125 -38.957031 13.25 -41.34375 C 16.6875 -43.726562 20.414062 -45.613281 24.4375 -47 C 28.457031 -48.382812 32.617188 -49.0625 36.921875 -49.03125 C 41.234375 -49.007812 45.515625 -48.070312 49.765625 -46.21875 C 50.816406 -45.757812 51.820312 -45.207031 52.78125 -44.5625 Z M 52.78125 -44.5625 "/></g></g></g><g fill="#ffde59" fill-opacity="0.502"><g transform="translate(43.18845, 180.902859)"><g><path d="M 44.734375 -9.4375 C 44.835938 -9.507812 44.988281 -9.546875 45.1875 -9.546875 C 45.382812 -9.546875 45.554688 -9.492188 45.703125 -9.390625 C 45.847656 -9.285156 45.875 -9.132812 45.78125 -8.9375 C 44.601562 -6.675781 42.929688 -4.222656 40.765625 -1.578125 C 38.609375 1.054688 36.488281 3.445312 34.40625 5.59375 C 32.320312 7.75 30.800781 9.226562 29.84375 10.03125 C 27.59375 11.976562 25.054688 13.6875 22.234375 15.15625 C 20.765625 15.925781 19.203125 16.566406 17.546875 17.078125 C 15.617188 17.660156 13.554688 17.859375 11.359375 17.671875 C 8.515625 17.453125 6.207031 16.363281 4.4375 14.40625 C 3.238281 13.039062 2.472656 11.570312 2.140625 10 C 1.453125 6.914062 1.585938 3.96875 2.546875 1.15625 C 3.296875 -1.25 4.347656 -3.503906 5.703125 -5.609375 C 7.066406 -7.710938 8.664062 -9.707031 10.5 -11.59375 C 13.132812 -14.300781 16.132812 -16.742188 19.5 -18.921875 C 19.59375 -18.984375 19.6875 -19.035156 19.78125 -19.078125 C 19.945312 -19.171875 20.101562 -19.273438 20.25 -19.390625 C 20.394531 -19.515625 20.488281 -19.695312 20.53125 -19.9375 C 18.695312 -20.519531 17.3125 -21.1875 16.375 -21.9375 C 15.445312 -22.695312 14.828125 -23.523438 14.515625 -24.421875 C 14.203125 -25.316406 14.046875 -26.253906 14.046875 -27.234375 C 14.066406 -28.628906 14.351562 -29.96875 14.90625 -31.25 C 15.757812 -33.363281 16.960938 -35.316406 18.515625 -37.109375 C 20.410156 -39.421875 22.582031 -41.5625 25.03125 -43.53125 C 26.15625 -44.507812 27.460938 -45.320312 28.953125 -45.96875 C 30.085938 -46.4375 31.328125 -46.585938 32.671875 -46.421875 C 33.578125 -46.335938 34.296875 -46.0625 34.828125 -45.59375 C 35.367188 -45.125 35.648438 -44.550781 35.671875 -43.875 C 35.671875 -43.019531 35.53125 -42.222656 35.25 -41.484375 C 34.800781 -40.367188 34.273438 -39.28125 33.671875 -38.21875 C 33.117188 -37.21875 32.554688 -36.226562 31.984375 -35.25 C 31.722656 -34.800781 31.460938 -34.359375 31.203125 -33.921875 C 31.015625 -33.566406 30.785156 -33.332031 30.515625 -33.21875 C 30.253906 -33.113281 29.863281 -33.09375 29.34375 -33.15625 C 29.019531 -33.21875 28.757812 -33.335938 28.5625 -33.515625 C 28.363281 -33.691406 28.296875 -33.890625 28.359375 -34.109375 C 28.484375 -34.609375 28.671875 -35.078125 28.921875 -35.515625 C 29.367188 -36.316406 29.820312 -37.101562 30.28125 -37.875 C 30.53125 -38.300781 30.773438 -38.726562 31.015625 -39.15625 C 31.617188 -40.1875 32.070312 -41.28125 32.375 -42.4375 C 32.53125 -42.988281 32.566406 -43.554688 32.484375 -44.140625 C 32.410156 -44.472656 32.242188 -44.703125 31.984375 -44.828125 C 31.722656 -44.960938 31.425781 -44.957031 31.09375 -44.8125 C 30.351562 -44.476562 29.671875 -44.085938 29.046875 -43.640625 C 25.109375 -40.722656 21.882812 -37.351562 19.375 -33.53125 C 18.09375 -31.59375 17.367188 -29.472656 17.203125 -27.171875 C 17.097656 -25.953125 17.429688 -24.742188 18.203125 -23.546875 C 18.867188 -22.609375 19.820312 -21.914062 21.0625 -21.46875 C 22.195312 -21.03125 23.296875 -21.03125 24.359375 -21.46875 C 25.484375 -21.96875 26.691406 -22.375 27.984375 -22.6875 C 29.191406 -23.019531 30.46875 -23.082031 31.8125 -22.875 C 32.28125 -22.800781 32.625 -22.601562 32.84375 -22.28125 C 33.019531 -21.925781 32.941406 -21.632812 32.609375 -21.40625 C 32.054688 -21.070312 31.46875 -20.796875 30.84375 -20.578125 C 29.5 -20.097656 28.050781 -19.820312 26.5 -19.75 C 25.582031 -19.726562 24.796875 -19.503906 24.140625 -19.078125 C 19.984375 -16.660156 16.398438 -13.890625 13.390625 -10.765625 C 10.390625 -7.640625 8.046875 -4.101562 6.359375 -0.15625 C 5.679688 1.457031 5.253906 3.117188 5.078125 4.828125 C 4.898438 6.535156 5.03125 8.289062 5.46875 10.09375 C 5.769531 11.5625 6.503906 12.914062 7.671875 14.15625 C 9.328125 15.925781 11.394531 16.601562 13.875 16.1875 C 15.375 15.9375 16.753906 15.507812 18.015625 14.90625 C 20.316406 13.851562 22.628906 12.492188 24.953125 10.828125 C 27.285156 9.160156 29.457031 7.382812 31.46875 5.5 C 33.488281 3.613281 35.222656 1.804688 36.671875 0.078125 C 37.535156 -0.941406 38.625 -2.21875 39.9375 -3.75 C 41.84375 -5.988281 43.441406 -7.882812 44.734375 -9.4375 Z M 44.734375 -9.4375 "/></g></g></g><g fill="#ffde59" fill-opacity="0.502"><g transform="translate(86.894979, 180.902859)"><g><path d="M 52.78125 -44.5625 C 54.925781 -43.164062 56.484375 -41.425781 57.453125 -39.34375 C 58.421875 -37.257812 58.734375 -35.050781 58.390625 -32.71875 C 57.921875 -29.875 56.882812 -27.335938 55.28125 -25.109375 C 53.6875 -22.890625 51.859375 -20.898438 49.796875 -19.140625 C 48.085938 -17.679688 46.3125 -16.316406 44.46875 -15.046875 C 42.632812 -13.785156 40.75 -12.59375 38.8125 -11.46875 C 36.289062 -9.976562 33.734375 -8.523438 31.140625 -7.109375 C 30.003906 -6.484375 28.875 -5.863281 27.75 -5.25 C 27.695312 -5.195312 27.640625 -5.148438 27.578125 -5.109375 C 27.421875 -5.015625 27.265625 -4.953125 27.109375 -4.921875 C 26.460938 -4.691406 26.019531 -4.367188 25.78125 -3.953125 C 25.539062 -3.546875 25.414062 -3.070312 25.40625 -2.53125 C 25.394531 -1.988281 25.421875 -1.425781 25.484375 -0.84375 C 25.503906 -0.5625 25.660156 -0.363281 25.953125 -0.25 C 26.265625 -0.144531 26.585938 -0.0546875 26.921875 0.015625 C 28.378906 0.328125 29.835938 0.625 31.296875 0.90625 C 33.734375 1.414062 36.1875 1.925781 38.65625 2.4375 C 41.363281 2.988281 44.066406 3.554688 46.765625 4.140625 C 48.410156 4.492188 50.066406 4.847656 51.734375 5.203125 C 52.191406 5.316406 52.644531 5.40625 53.09375 5.46875 C 53.601562 5.582031 54.113281 5.695312 54.625 5.8125 C 55 5.863281 55.375 5.972656 55.75 6.140625 C 55.863281 6.203125 55.957031 6.28125 56.03125 6.375 C 56.113281 6.476562 56.140625 6.609375 56.109375 6.765625 C 56.085938 6.898438 56.039062 6.984375 55.96875 7.015625 C 55.894531 7.046875 55.8125 7.0625 55.71875 7.0625 C 55.40625 7.082031 55.082031 7.0625 54.75 7 C 53.363281 6.757812 51.96875 6.53125 50.5625 6.3125 C 48.238281 5.945312 45.910156 5.519531 43.578125 5.03125 C 39.828125 4.238281 36.078125 3.453125 32.328125 2.671875 C 31.535156 2.515625 30.726562 2.347656 29.90625 2.171875 C 28.707031 1.898438 27.488281 1.671875 26.25 1.484375 C 25.71875 1.367188 25.453125 1.597656 25.453125 2.171875 C 25.429688 2.566406 25.421875 2.957031 25.421875 3.34375 C 25.421875 3.539062 25.421875 3.738281 25.421875 3.9375 C 25.347656 10.414062 25.28125 16.898438 25.21875 23.390625 C 25.21875 23.460938 25.21875 23.546875 25.21875 23.640625 C 25.21875 23.878906 25.203125 24.117188 25.171875 24.359375 C 25.128906 24.960938 24.796875 25.21875 24.171875 25.125 C 23.546875 25.039062 23.195312 24.710938 23.125 24.140625 C 23.082031 23.847656 23.070312 23.554688 23.09375 23.265625 C 23.09375 23.222656 23.09375 23.191406 23.09375 23.171875 C 23.070312 19.753906 23.035156 16.390625 22.984375 13.078125 C 22.941406 9.734375 22.921875 6.332031 22.921875 2.875 C 22.921875 2.71875 22.921875 2.550781 22.921875 2.375 C 22.898438 2.082031 22.898438 1.796875 22.921875 1.515625 C 22.941406 0.992188 22.710938 0.625 22.234375 0.40625 C 22.179688 0.382812 22.125 0.363281 22.0625 0.34375 C 21.675781 0.1875 21.304688 -0.00390625 20.953125 -0.234375 C 19.921875 -0.910156 19.679688 -1.738281 20.234375 -2.71875 C 20.648438 -3.40625 21.203125 -3.945312 21.890625 -4.34375 C 22.304688 -4.5625 22.585938 -4.847656 22.734375 -5.203125 C 22.878906 -5.566406 22.953125 -6 22.953125 -6.5 C 22.929688 -12.132812 22.929688 -17.769531 22.953125 -23.40625 C 22.953125 -24.78125 22.953125 -26.15625 22.953125 -27.53125 C 22.953125 -27.59375 22.953125 -27.671875 22.953125 -27.765625 C 22.953125 -28.273438 22.960938 -28.773438 22.984375 -29.265625 C 23.054688 -29.890625 23.46875 -30.144531 24.21875 -30.03125 C 24.945312 -29.9375 25.320312 -29.554688 25.34375 -28.890625 C 25.34375 -28.492188 25.34375 -28.109375 25.34375 -27.734375 C 25.34375 -27.597656 25.34375 -27.46875 25.34375 -27.34375 C 25.375 -24.257812 25.390625 -21.179688 25.390625 -18.109375 C 25.390625 -15.078125 25.398438 -12.039062 25.421875 -9 C 25.421875 -8.976562 25.421875 -8.957031 25.421875 -8.9375 C 25.421875 -8.425781 25.429688 -7.925781 25.453125 -7.4375 C 25.492188 -6.957031 25.75 -6.800781 26.21875 -6.96875 C 26.375 -7.039062 26.523438 -7.125 26.671875 -7.21875 C 26.703125 -7.21875 26.71875 -7.21875 26.71875 -7.21875 C 29.457031 -8.675781 32.175781 -10.191406 34.875 -11.765625 C 37.570312 -13.335938 40.195312 -15.019531 42.75 -16.8125 C 44.5 -18.03125 46.171875 -19.34375 47.765625 -20.75 C 49.367188 -22.164062 50.820312 -23.738281 52.125 -25.46875 C 53.539062 -27.3125 54.570312 -29.378906 55.21875 -31.671875 C 55.644531 -33.171875 55.757812 -34.75 55.5625 -36.40625 C 55.207031 -38.9375 54.019531 -41.082031 52 -42.84375 C 51.039062 -43.65625 50.007812 -44.3125 48.90625 -44.8125 C 44.84375 -46.707031 40.773438 -47.675781 36.703125 -47.71875 C 32.640625 -47.769531 28.726562 -47.113281 24.96875 -45.75 C 21.207031 -44.382812 17.765625 -42.523438 14.640625 -40.171875 C 11.515625 -37.828125 8.84375 -35.195312 6.625 -32.28125 C 5.757812 -31.28125 5.003906 -30.195312 4.359375 -29.03125 C 3.910156 -28.289062 3.515625 -27.53125 3.171875 -26.75 C 2.828125 -25.976562 2.601562 -25.140625 2.5 -24.234375 C 2.476562 -24.015625 2.394531 -23.859375 2.25 -23.765625 C 2.101562 -23.679688 1.925781 -23.65625 1.71875 -23.6875 C 1.457031 -23.6875 1.207031 -23.722656 0.96875 -23.796875 C 0.457031 -23.984375 0.191406 -24.34375 0.171875 -24.875 C 0.148438 -25.582031 0.269531 -26.257812 0.53125 -26.90625 C 1.394531 -29.300781 2.648438 -31.441406 4.296875 -33.328125 C 6.828125 -36.285156 9.8125 -38.957031 13.25 -41.34375 C 16.6875 -43.726562 20.414062 -45.613281 24.4375 -47 C 28.457031 -48.382812 32.617188 -49.0625 36.921875 -49.03125 C 41.234375 -49.007812 45.515625 -48.070312 49.765625 -46.21875 C 50.816406 -45.757812 51.820312 -45.207031 52.78125 -44.5625 Z M 52.78125 -44.5625 "/></g></g></g><g fill="#ffde59" fill-opacity="0.502"><g transform="translate(133.943777, 180.902859)"><g><path d="M 52.78125 -44.5625 C 54.925781 -43.164062 56.484375 -41.425781 57.453125 -39.34375 C 58.421875 -37.257812 58.734375 -35.050781 58.390625 -32.71875 C 57.921875 -29.875 56.882812 -27.335938 55.28125 -25.109375 C 53.6875 -22.890625 51.859375 -20.898438 49.796875 -19.140625 C 48.085938 -17.679688 46.3125 -16.316406 44.46875 -15.046875 C 42.632812 -13.785156 40.75 -12.59375 38.8125 -11.46875 C 36.289062 -9.976562 33.734375 -8.523438 31.140625 -7.109375 C 30.003906 -6.484375 28.875 -5.863281 27.75 -5.25 C 27.695312 -5.195312 27.640625 -5.148438 27.578125 -5.109375 C 27.421875 -5.015625 27.265625 -4.953125 27.109375 -4.921875 C 26.460938 -4.691406 26.019531 -4.367188 25.78125 -3.953125 C 25.539062 -3.546875 25.414062 -3.070312 25.40625 -2.53125 C 25.394531 -1.988281 25.421875 -1.425781 25.484375 -0.84375 C 25.503906 -0.5625 25.660156 -0.363281 25.953125 -0.25 C 26.265625 -0.144531 26.585938 -0.0546875 26.921875 0.015625 C 28.378906 0.328125 29.835938 0.625 31.296875 0.90625 C 33.734375 1.414062 36.1875 1.925781 38.65625 2.4375 C 41.363281 2.988281 44.066406 3.554688 46.765625 4.140625 C 48.410156 4.492188 50.066406 4.847656 51.734375 5.203125 C 52.191406 5.316406 52.644531 5.40625 53.09375 5.46875 C 53.601562 5.582031 54.113281 5.695312 54.625 5.8125 C 55 5.863281 55.375 5.972656 55.75 6.140625 C 55.863281 6.203125 55.957031 6.28125 56.03125 6.375 C 56.113281 6.476562 56.140625 6.609375 56.109375 6.765625 C 56.085938 6.898438 56.039062 6.984375 55.96875 7.015625 C 55.894531 7.046875 55.8125 7.0625 55.71875 7.0625 C 55.40625 7.082031 55.082031 7.0625 54.75 7 C 53.363281 6.757812 51.96875 6.53125 50.5625 6.3125 C 48.238281 5.945312 45.910156 5.519531 43.578125 5.03125 C 39.828125 4.238281 36.078125 3.453125 32.328125 2.671875 C 31.535156 2.515625 30.726562 2.347656 29.90625 2.171875 C 28.707031 1.898438 27.488281 1.671875 26.25 1.484375 C 25.71875 1.367188 25.453125 1.597656 25.453125 2.171875 C 25.429688 2.566406 25.421875 2.957031 25.421875 3.34375 C 25.421875 3.539062 25.421875 3.738281 25.421875 3.9375 C 25.347656 10.414062 25.28125 16.898438 25.21875 23.390625 C 25.21875 23.460938 25.21875 23.546875 25.21875 23.640625 C 25.21875 23.878906 25.203125 24.117188 25.171875 24.359375 C 25.128906 24.960938 24.796875 25.21875 24.171875 25.125 C 23.546875 25.039062 23.195312 24.710938 23.125 24.140625 C 23.082031 23.847656 23.070312 23.554688 23.09375 23.265625 C 23.09375 23.222656 23.09375 23.191406 23.09375 23.171875 C 23.070312 19.753906 23.035156 16.390625 22.984375 13.078125 C 22.941406 9.734375 22.921875 6.332031 22.921875 2.875 C 22.921875 2.71875 22.921875 2.550781 22.921875 2.375 C 22.898438 2.082031 22.898438 1.796875 22.921875 1.515625 C 22.941406 0.992188 22.710938 0.625 22.234375 0.40625 C 22.179688 0.382812 22.125 0.363281 22.0625 0.34375 C 21.675781 0.1875 21.304688 -0.00390625 20.953125 -0.234375 C 19.921875 -0.910156 19.679688 -1.738281 20.234375 -2.71875 C 20.648438 -3.40625 21.203125 -3.945312 21.890625 -4.34375 C 22.304688 -4.5625 22.585938 -4.847656 22.734375 -5.203125 C 22.878906 -5.566406 22.953125 -6 22.953125 -6.5 C 22.929688 -12.132812 22.929688 -17.769531 22.953125 -23.40625 C 22.953125 -24.78125 22.953125 -26.15625 22.953125 -27.53125 C 22.953125 -27.59375 22.953125 -27.671875 22.953125 -27.765625 C 22.953125 -28.273438 22.960938 -28.773438 22.984375 -29.265625 C 23.054688 -29.890625 23.46875 -30.144531 24.21875 -30.03125 C 24.945312 -29.9375 25.320312 -29.554688 25.34375 -28.890625 C 25.34375 -28.492188 25.34375 -28.109375 25.34375 -27.734375 C 25.34375 -27.597656 25.34375 -27.46875 25.34375 -27.34375 C 25.375 -24.257812 25.390625 -21.179688 25.390625 -18.109375 C 25.390625 -15.078125 25.398438 -12.039062 25.421875 -9 C 25.421875 -8.976562 25.421875 -8.957031 25.421875 -8.9375 C 25.421875 -8.425781 25.429688 -7.925781 25.453125 -7.4375 C 25.492188 -6.957031 25.75 -6.800781 26.21875 -6.96875 C 26.375 -7.039062 26.523438 -7.125 26.671875 -7.21875 C 26.703125 -7.21875 26.71875 -7.21875 26.71875 -7.21875 C 29.457031 -8.675781 32.175781 -10.191406 34.875 -11.765625 C 37.570312 -13.335938 40.195312 -15.019531 42.75 -16.8125 C 44.5 -18.03125 46.171875 -19.34375 47.765625 -20.75 C 49.367188 -22.164062 50.820312 -23.738281 52.125 -25.46875 C 53.539062 -27.3125 54.570312 -29.378906 55.21875 -31.671875 C 55.644531 -33.171875 55.757812 -34.75 55.5625 -36.40625 C 55.207031 -38.9375 54.019531 -41.082031 52 -42.84375 C 51.039062 -43.65625 50.007812 -44.3125 48.90625 -44.8125 C 44.84375 -46.707031 40.773438 -47.675781 36.703125 -47.71875 C 32.640625 -47.769531 28.726562 -47.113281 24.96875 -45.75 C 21.207031 -44.382812 17.765625 -42.523438 14.640625 -40.171875 C 11.515625 -37.828125 8.84375 -35.195312 6.625 -32.28125 C 5.757812 -31.28125 5.003906 -30.195312 4.359375 -29.03125 C 3.910156 -28.289062 3.515625 -27.53125 3.171875 -26.75 C 2.828125 -25.976562 2.601562 -25.140625 2.5 -24.234375 C 2.476562 -24.015625 2.394531 -23.859375 2.25 -23.765625 C 2.101562 -23.679688 1.925781 -23.65625 1.71875 -23.6875 C 1.457031 -23.6875 1.207031 -23.722656 0.96875 -23.796875 C 0.457031 -23.984375 0.191406 -24.34375 0.171875 -24.875 C 0.148438 -25.582031 0.269531 -26.257812 0.53125 -26.90625 C 1.394531 -29.300781 2.648438 -31.441406 4.296875 -33.328125 C 6.828125 -36.285156 9.8125 -38.957031 13.25 -41.34375 C 16.6875 -43.726562 20.414062 -45.613281 24.4375 -47 C 28.457031 -48.382812 32.617188 -49.0625 36.921875 -49.03125 C 41.234375 -49.007812 45.515625 -48.070312 49.765625 -46.21875 C 50.816406 -45.757812 51.820312 -45.207031 52.78125 -44.5625 Z M 52.78125 -44.5625 "/></g></g></g><g fill="#ffde59" fill-opacity="0.502"><g transform="translate(180.992575, 180.902859)"><g><path d="M 35.03125 -32.78125 C 35.59375 -29.988281 35.945312 -26.644531 36.09375 -22.75 C 36.132812 -19.820312 35.90625 -16.738281 35.40625 -13.5 C 34.90625 -10.257812 34.003906 -7.019531 32.703125 -3.78125 C 31.878906 -1.875 30.914062 -0.0546875 29.8125 1.671875 C 28.71875 3.398438 27.421875 4.984375 25.921875 6.421875 C 24.753906 7.566406 23.46875 8.507812 22.0625 9.25 C 20.507812 10.082031 18.832031 10.578125 17.03125 10.734375 C 15.226562 10.890625 13.453125 10.640625 11.703125 9.984375 C 9.960938 9.328125 8.367188 8.195312 6.921875 6.59375 C 5.609375 5.070312 4.53125 3.398438 3.6875 1.578125 C 1.78125 -2.640625 0.660156 -7.039062 0.328125 -11.625 C 0.109375 -14.375 0.171875 -17.097656 0.515625 -19.796875 C 0.859375 -22.492188 1.53125 -25.148438 2.53125 -27.765625 C 2.925781 -28.847656 3.394531 -29.898438 3.9375 -30.921875 C 4.269531 -31.523438 4.296875 -32.132812 4.015625 -32.75 C 3.085938 -34.96875 2.535156 -37.273438 2.359375 -39.671875 C 2.203125 -42.003906 2.550781 -44.195312 3.40625 -46.25 C 4.257812 -48.300781 5.453125 -50.046875 6.984375 -51.484375 C 8.515625 -52.929688 10.234375 -53.90625 12.140625 -54.40625 C 16.773438 -55.601562 21.046875 -54.796875 24.953125 -51.984375 C 27.367188 -50.210938 29.289062 -47.992188 30.71875 -45.328125 C 31.769531 -43.359375 32.640625 -41.320312 33.328125 -39.21875 C 34.023438 -37.125 34.59375 -34.976562 35.03125 -32.78125 Z M 30.796875 -5.875 C 31.703125 -8.425781 32.359375 -11.007812 32.765625 -13.625 C 33.171875 -16.25 33.394531 -18.863281 33.4375 -21.46875 C 33.4375 -26.90625 32.691406 -32.164062 31.203125 -37.25 C 30.734375 -38.820312 30.179688 -40.363281 29.546875 -41.875 C 28.921875 -43.382812 28.15625 -44.832031 27.25 -46.21875 C 26.425781 -47.507812 25.46875 -48.671875 24.375 -49.703125 C 23.289062 -50.734375 22.050781 -51.597656 20.65625 -52.296875 C 19.007812 -53.109375 17.367188 -53.507812 15.734375 -53.5 C 14.097656 -53.488281 12.503906 -52.945312 10.953125 -51.875 C 8.972656 -50.53125 7.484375 -48.90625 6.484375 -47 C 5.484375 -45.09375 5.03125 -42.941406 5.125 -40.546875 C 5.34375 -34.441406 7.757812 -29.359375 12.375 -25.296875 C 13.84375 -23.992188 15.40625 -22.863281 17.0625 -21.90625 C 18.726562 -20.945312 20.503906 -20.207031 22.390625 -19.6875 C 22.472656 -19.65625 22.5625 -19.628906 22.65625 -19.609375 C 22.832031 -19.585938 23.003906 -19.546875 23.171875 -19.484375 C 23.335938 -19.421875 23.488281 -19.320312 23.625 -19.1875 C 23.6875 -19.113281 23.734375 -19.023438 23.765625 -18.921875 C 23.796875 -18.828125 23.8125 -18.734375 23.8125 -18.640625 C 23.789062 -18.578125 23.753906 -18.5 23.703125 -18.40625 C 23.648438 -18.320312 23.585938 -18.257812 23.515625 -18.21875 C 23.140625 -18.019531 22.765625 -18.007812 22.390625 -18.1875 C 21.785156 -18.46875 21.160156 -18.691406 20.515625 -18.859375 C 20.410156 -18.878906 20.316406 -18.898438 20.234375 -18.921875 C 14.523438 -20.453125 9.929688 -23.578125 6.453125 -28.296875 C 6.398438 -28.359375 6.359375 -28.425781 6.328125 -28.5 C 6.253906 -28.65625 6.160156 -28.78125 6.046875 -28.875 C 5.929688 -28.976562 5.789062 -29.003906 5.625 -28.953125 C 5.488281 -28.929688 5.394531 -28.867188 5.34375 -28.765625 C 5.289062 -28.671875 5.25 -28.554688 5.21875 -28.421875 C 5.195312 -28.335938 5.164062 -28.265625 5.125 -28.203125 C 5.050781 -28.035156 4.992188 -27.867188 4.953125 -27.703125 C 4.929688 -27.628906 4.898438 -27.546875 4.859375 -27.453125 C 3.460938 -23.460938 2.738281 -19.46875 2.6875 -15.46875 C 2.644531 -11.46875 3.226562 -7.453125 4.4375 -3.421875 C 4.84375 -1.972656 5.347656 -0.582031 5.953125 0.75 C 6.566406 2.09375 7.3125 3.375 8.1875 4.59375 C 9.195312 6.039062 10.457031 7.222656 11.96875 8.140625 C 14.15625 9.460938 16.441406 9.679688 18.828125 8.796875 C 20.203125 8.242188 21.46875 7.5 22.625 6.5625 C 23.726562 5.65625 24.722656 4.644531 25.609375 3.53125 C 26.742188 2.113281 27.738281 0.613281 28.59375 -0.96875 C 29.445312 -2.550781 30.179688 -4.1875 30.796875 -5.875 Z M 30.796875 -5.875 "/></g></g></g><g fill="#ffde59" fill-opacity="0.502"><g transform="translate(219.179081, 180.902859)"><g><path d="M 52.78125 -44.5625 C 54.925781 -43.164062 56.484375 -41.425781 57.453125 -39.34375 C 58.421875 -37.257812 58.734375 -35.050781 58.390625 -32.71875 C 57.921875 -29.875 56.882812 -27.335938 55.28125 -25.109375 C 53.6875 -22.890625 51.859375 -20.898438 49.796875 -19.140625 C 48.085938 -17.679688 46.3125 -16.316406 44.46875 -15.046875 C 42.632812 -13.785156 40.75 -12.59375 38.8125 -11.46875 C 36.289062 -9.976562 33.734375 -8.523438 31.140625 -7.109375 C 30.003906 -6.484375 28.875 -5.863281 27.75 -5.25 C 27.695312 -5.195312 27.640625 -5.148438 27.578125 -5.109375 C 27.421875 -5.015625 27.265625 -4.953125 27.109375 -4.921875 C 26.460938 -4.691406 26.019531 -4.367188 25.78125 -3.953125 C 25.539062 -3.546875 25.414062 -3.070312 25.40625 -2.53125 C 25.394531 -1.988281 25.421875 -1.425781 25.484375 -0.84375 C 25.503906 -0.5625 25.660156 -0.363281 25.953125 -0.25 C 26.265625 -0.144531 26.585938 -0.0546875 26.921875 0.015625 C 28.378906 0.328125 29.835938 0.625 31.296875 0.90625 C 33.734375 1.414062 36.1875 1.925781 38.65625 2.4375 C 41.363281 2.988281 44.066406 3.554688 46.765625 4.140625 C 48.410156 4.492188 50.066406 4.847656 51.734375 5.203125 C 52.191406 5.316406 52.644531 5.40625 53.09375 5.46875 C 53.601562 5.582031 54.113281 5.695312 54.625 5.8125 C 55 5.863281 55.375 5.972656 55.75 6.140625 C 55.863281 6.203125 55.957031 6.28125 56.03125 6.375 C 56.113281 6.476562 56.140625 6.609375 56.109375 6.765625 C 56.085938 6.898438 56.039062 6.984375 55.96875 7.015625 C 55.894531 7.046875 55.8125 7.0625 55.71875 7.0625 C 55.40625 7.082031 55.082031 7.0625 54.75 7 C 53.363281 6.757812 51.96875 6.53125 50.5625 6.3125 C 48.238281 5.945312 45.910156 5.519531 43.578125 5.03125 C 39.828125 4.238281 36.078125 3.453125 32.328125 2.671875 C 31.535156 2.515625 30.726562 2.347656 29.90625 2.171875 C 28.707031 1.898438 27.488281 1.671875 26.25 1.484375 C 25.71875 1.367188 25.453125 1.597656 25.453125 2.171875 C 25.429688 2.566406 25.421875 2.957031 25.421875 3.34375 C 25.421875 3.539062 25.421875 3.738281 25.421875 3.9375 C 25.347656 10.414062 25.28125 16.898438 25.21875 23.390625 C 25.21875 23.460938 25.21875 23.546875 25.21875 23.640625 C 25.21875 23.878906 25.203125 24.117188 25.171875 24.359375 C 25.128906 24.960938 24.796875 25.21875 24.171875 25.125 C 23.546875 25.039062 23.195312 24.710938 23.125 24.140625 C 23.082031 23.847656 23.070312 23.554688 23.09375 23.265625 C 23.09375 23.222656 23.09375 23.191406 23.09375 23.171875 C 23.070312 19.753906 23.035156 16.390625 22.984375 13.078125 C 22.941406 9.734375 22.921875 6.332031 22.921875 2.875 C 22.921875 2.71875 22.921875 2.550781 22.921875 2.375 C 22.898438 2.082031 22.898438 1.796875 22.921875 1.515625 C 22.941406 0.992188 22.710938 0.625 22.234375 0.40625 C 22.179688 0.382812 22.125 0.363281 22.0625 0.34375 C 21.675781 0.1875 21.304688 -0.00390625 20.953125 -0.234375 C 19.921875 -0.910156 19.679688 -1.738281 20.234375 -2.71875 C 20.648438 -3.40625 21.203125 -3.945312 21.890625 -4.34375 C 22.304688 -4.5625 22.585938 -4.847656 22.734375 -5.203125 C 22.878906 -5.566406 22.953125 -6 22.953125 -6.5 C 22.929688 -12.132812 22.929688 -17.769531 22.953125 -23.40625 C 22.953125 -24.78125 22.953125 -26.15625 22.953125 -27.53125 C 22.953125 -27.59375 22.953125 -27.671875 22.953125 -27.765625 C 22.953125 -28.273438 22.960938 -28.773438 22.984375 -29.265625 C 23.054688 -29.890625 23.46875 -30.144531 24.21875 -30.03125 C 24.945312 -29.9375 25.320312 -29.554688 25.34375 -28.890625 C 25.34375 -28.492188 25.34375 -28.109375 25.34375 -27.734375 C 25.34375 -27.597656 25.34375 -27.46875 25.34375 -27.34375 C 25.375 -24.257812 25.390625 -21.179688 25.390625 -18.109375 C 25.390625 -15.078125 25.398438 -12.039062 25.421875 -9 C 25.421875 -8.976562 25.421875 -8.957031 25.421875 -8.9375 C 25.421875 -8.425781 25.429688 -7.925781 25.453125 -7.4375 C 25.492188 -6.957031 25.75 -6.800781 26.21875 -6.96875 C 26.375 -7.039062 26.523438 -7.125 26.671875 -7.21875 C 26.703125 -7.21875 26.71875 -7.21875 26.71875 -7.21875 C 29.457031 -8.675781 32.175781 -10.191406 34.875 -11.765625 C 37.570312 -13.335938 40.195312 -15.019531 42.75 -16.8125 C 44.5 -18.03125 46.171875 -19.34375 47.765625 -20.75 C 49.367188 -22.164062 50.820312 -23.738281 52.125 -25.46875 C 53.539062 -27.3125 54.570312 -29.378906 55.21875 -31.671875 C 55.644531 -33.171875 55.757812 -34.75 55.5625 -36.40625 C 55.207031 -38.9375 54.019531 -41.082031 52 -42.84375 C 51.039062 -43.65625 50.007812 -44.3125 48.90625 -44.8125 C 44.84375 -46.707031 40.773438 -47.675781 36.703125 -47.71875 C 32.640625 -47.769531 28.726562 -47.113281 24.96875 -45.75 C 21.207031 -44.382812 17.765625 -42.523438 14.640625 -40.171875 C 11.515625 -37.828125 8.84375 -35.195312 6.625 -32.28125 C 5.757812 -31.28125 5.003906 -30.195312 4.359375 -29.03125 C 3.910156 -28.289062 3.515625 -27.53125 3.171875 -26.75 C 2.828125 -25.976562 2.601562 -25.140625 2.5 -24.234375 C 2.476562 -24.015625 2.394531 -23.859375 2.25 -23.765625 C 2.101562 -23.679688 1.925781 -23.65625 1.71875 -23.6875 C 1.457031 -23.6875 1.207031 -23.722656 0.96875 -23.796875 C 0.457031 -23.984375 0.191406 -24.34375 0.171875 -24.875 C 0.148438 -25.582031 0.269531 -26.257812 0.53125 -26.90625 C 1.394531 -29.300781 2.648438 -31.441406 4.296875 -33.328125 C 6.828125 -36.285156 9.8125 -38.957031 13.25 -41.34375 C 16.6875 -43.726562 20.414062 -45.613281 24.4375 -47 C 28.457031 -48.382812 32.617188 -49.0625 36.921875 -49.03125 C 41.234375 -49.007812 45.515625 -48.070312 49.765625 -46.21875 C 50.816406 -45.757812 51.820312 -45.207031 52.78125 -44.5625 Z M 52.78125 -44.5625 "/></g></g></g><g fill="#000000" fill-opacity="1"><g transform="translate(41.858524, 181.905031)"><g><path d="M 44.734375 -9.4375 C 44.835938 -9.507812 44.988281 -9.546875 45.1875 -9.546875 C 45.382812 -9.546875 45.554688 -9.492188 45.703125 -9.390625 C 45.847656 -9.285156 45.875 -9.132812 45.78125 -8.9375 C 44.601562 -6.675781 42.929688 -4.222656 40.765625 -1.578125 C 38.609375 1.054688 36.488281 3.445312 34.40625 5.59375 C 32.320312 7.75 30.800781 9.226562 29.84375 10.03125 C 27.59375 11.976562 25.054688 13.6875 22.234375 15.15625 C 20.765625 15.925781 19.203125 16.566406 17.546875 17.078125 C 15.617188 17.660156 13.554688 17.859375 11.359375 17.671875 C 8.515625 17.453125 6.207031 16.363281 4.4375 14.40625 C 3.238281 13.039062 2.472656 11.570312 2.140625 10 C 1.453125 6.914062 1.585938 3.96875 2.546875 1.15625 C 3.296875 -1.25 4.347656 -3.503906 5.703125 -5.609375 C 7.066406 -7.710938 8.664062 -9.707031 10.5 -11.59375 C 13.132812 -14.300781 16.132812 -16.742188 19.5 -18.921875 C 19.59375 -18.984375 19.6875 -19.035156 19.78125 -19.078125 C 19.945312 -19.171875 20.101562 -19.273438 20.25 -19.390625 C 20.394531 -19.515625 20.488281 -19.695312 20.53125 -19.9375 C 18.695312 -20.519531 17.3125 -21.1875 16.375 -21.9375 C 15.445312 -22.695312 14.828125 -23.523438 14.515625 -24.421875 C 14.203125 -25.316406 14.046875 -26.253906 14.046875 -27.234375 C 14.066406 -28.628906 14.351562 -29.96875 14.90625 -31.25 C 15.757812 -33.363281 16.960938 -35.316406 18.515625 -37.109375 C 20.410156 -39.421875 22.582031 -41.5625 25.03125 -43.53125 C 26.15625 -44.507812 27.460938 -45.320312 28.953125 -45.96875 C 30.085938 -46.4375 31.328125 -46.585938 32.671875 -46.421875 C 33.578125 -46.335938 34.296875 -46.0625 34.828125 -45.59375 C 35.367188 -45.125 35.648438 -44.550781 35.671875 -43.875 C 35.671875 -43.019531 35.53125 -42.222656 35.25 -41.484375 C 34.800781 -40.367188 34.273438 -39.28125 33.671875 -38.21875 C 33.117188 -37.21875 32.554688 -36.226562 31.984375 -35.25 C 31.722656 -34.800781 31.460938 -34.359375 31.203125 -33.921875 C 31.015625 -33.566406 30.785156 -33.332031 30.515625 -33.21875 C 30.253906 -33.113281 29.863281 -33.09375 29.34375 -33.15625 C 29.019531 -33.21875 28.757812 -33.335938 28.5625 -33.515625 C 28.363281 -33.691406 28.296875 -33.890625 28.359375 -34.109375 C 28.484375 -34.609375 28.671875 -35.078125 28.921875 -35.515625 C 29.367188 -36.316406 29.820312 -37.101562 30.28125 -37.875 C 30.53125 -38.300781 30.773438 -38.726562 31.015625 -39.15625 C 31.617188 -40.1875 32.070312 -41.28125 32.375 -42.4375 C 32.53125 -42.988281 32.566406 -43.554688 32.484375 -44.140625 C 32.410156 -44.472656 32.242188 -44.703125 31.984375 -44.828125 C 31.722656 -44.960938 31.425781 -44.957031 31.09375 -44.8125 C 30.351562 -44.476562 29.671875 -44.085938 29.046875 -43.640625 C 25.109375 -40.722656 21.882812 -37.351562 19.375 -33.53125 C 18.09375 -31.59375 17.367188 -29.472656 17.203125 -27.171875 C 17.097656 -25.953125 17.429688 -24.742188 18.203125 -23.546875 C 18.867188 -22.609375 19.820312 -21.914062 21.0625 -21.46875 C 22.195312 -21.03125 23.296875 -21.03125 24.359375 -21.46875 C 25.484375 -21.96875 26.691406 -22.375 27.984375 -22.6875 C 29.191406 -23.019531 30.46875 -23.082031 31.8125 -22.875 C 32.28125 -22.800781 32.625 -22.601562 32.84375 -22.28125 C 33.019531 -21.925781 32.941406 -21.632812 32.609375 -21.40625 C 32.054688 -21.070312 31.46875 -20.796875 30.84375 -20.578125 C 29.5 -20.097656 28.050781 -19.820312 26.5 -19.75 C 25.582031 -19.726562 24.796875 -19.503906 24.140625 -19.078125 C 19.984375 -16.660156 16.398438 -13.890625 13.390625 -10.765625 C 10.390625 -7.640625 8.046875 -4.101562 6.359375 -0.15625 C 5.679688 1.457031 5.253906 3.117188 5.078125 4.828125 C 4.898438 6.535156 5.03125 8.289062 5.46875 10.09375 C 5.769531 11.5625 6.503906 12.914062 7.671875 14.15625 C 9.328125 15.925781 11.394531 16.601562 13.875 16.1875 C 15.375 15.9375 16.753906 15.507812 18.015625 14.90625 C 20.316406 13.851562 22.628906 12.492188 24.953125 10.828125 C 27.285156 9.160156 29.457031 7.382812 31.46875 5.5 C 33.488281 3.613281 35.222656 1.804688 36.671875 0.078125 C 37.535156 -0.941406 38.625 -2.21875 39.9375 -3.75 C 41.84375 -5.988281 43.441406 -7.882812 44.734375 -9.4375 Z M 44.734375 -9.4375 "/></g></g></g><g fill="#000000" fill-opacity="1"><g transform="translate(85.565052, 181.905031)"><g><path d="M 52.78125 -44.5625 C 54.925781 -43.164062 56.484375 -41.425781 57.453125 -39.34375 C 58.421875 -37.257812 58.734375 -35.050781 58.390625 -32.71875 C 57.921875 -29.875 56.882812 -27.335938 55.28125 -25.109375 C 53.6875 -22.890625 51.859375 -20.898438 49.796875 -19.140625 C 48.085938 -17.679688 46.3125 -16.316406 44.46875 -15.046875 C 42.632812 -13.785156 40.75 -12.59375 38.8125 -11.46875 C 36.289062 -9.976562 33.734375 -8.523438 31.140625 -7.109375 C 30.003906 -6.484375 28.875 -5.863281 27.75 -5.25 C 27.695312 -5.195312 27.640625 -5.148438 27.578125 -5.109375 C 27.421875 -5.015625 27.265625 -4.953125 27.109375 -4.921875 C 26.460938 -4.691406 26.019531 -4.367188 25.78125 -3.953125 C 25.539062 -3.546875 25.414062 -3.070312 25.40625 -2.53125 C 25.394531 -1.988281 25.421875 -1.425781 25.484375 -0.84375 C 25.503906 -0.5625 25.660156 -0.363281 25.953125 -0.25 C 26.265625 -0.144531 26.585938 -0.0546875 26.921875 0.015625 C 28.378906 0.328125 29.835938 0.625 31.296875 0.90625 C 33.734375 1.414062 36.1875 1.925781 38.65625 2.4375 C 41.363281 2.988281 44.066406 3.554688 46.765625 4.140625 C 48.410156 4.492188 50.066406 4.847656 51.734375 5.203125 C 52.191406 5.316406 52.644531 5.40625 53.09375 5.46875 C 53.601562 5.582031 54.113281 5.695312 54.625 5.8125 C 55 5.863281 55.375 5.972656 55.75 6.140625 C 55.863281 6.203125 55.957031 6.28125 56.03125 6.375 C 56.113281 6.476562 56.140625 6.609375 56.109375 6.765625 C 56.085938 6.898438 56.039062 6.984375 55.96875 7.015625 C 55.894531 7.046875 55.8125 7.0625 55.71875 7.0625 C 55.40625 7.082031 55.082031 7.0625 54.75 7 C 53.363281 6.757812 51.96875 6.53125 50.5625 6.3125 C 48.238281 5.945312 45.910156 5.519531 43.578125 5.03125 C 39.828125 4.238281 36.078125 3.453125 32.328125 2.671875 C 31.535156 2.515625 30.726562 2.347656 29.90625 2.171875 C 28.707031 1.898438 27.488281 1.671875 26.25 1.484375 C 25.71875 1.367188 25.453125 1.597656 25.453125 2.171875 C 25.429688 2.566406 25.421875 2.957031 25.421875 3.34375 C 25.421875 3.539062 25.421875 3.738281 25.421875 3.9375 C 25.347656 10.414062 25.28125 16.898438 25.21875 23.390625 C 25.21875 23.460938 25.21875 23.546875 25.21875 23.640625 C 25.21875 23.878906 25.203125 24.117188 25.171875 24.359375 C 25.128906 24.960938 24.796875 25.21875 24.171875 25.125 C 23.546875 25.039062 23.195312 24.710938 23.125 24.140625 C 23.082031 23.847656 23.070312 23.554688 23.09375 23.265625 C 23.09375 23.222656 23.09375 23.191406 23.09375 23.171875 C 23.070312 19.753906 23.035156 16.390625 22.984375 13.078125 C 22.941406 9.734375 22.921875 6.332031 22.921875 2.875 C 22.921875 2.71875 22.921875 2.550781 22.921875 2.375 C 22.898438 2.082031 22.898438 1.796875 22.921875 1.515625 C 22.941406 0.992188 22.710938 0.625 22.234375 0.40625 C 22.179688 0.382812 22.125 0.363281 22.0625 0.34375 C 21.675781 0.1875 21.304688 -0.00390625 20.953125 -0.234375 C 19.921875 -0.910156 19.679688 -1.738281 20.234375 -2.71875 C 20.648438 -3.40625 21.203125 -3.945312 21.890625 -4.34375 C 22.304688 -4.5625 22.585938 -4.847656 22.734375 -5.203125 C 22.878906 -5.566406 22.953125 -6 22.953125 -6.5 C 22.929688 -12.132812 22.929688 -17.769531 22.953125 -23.40625 C 22.953125 -24.78125 22.953125 -26.15625 22.953125 -27.53125 C 22.953125 -27.59375 22.953125 -27.671875 22.953125 -27.765625 C 22.953125 -28.273438 22.960938 -28.773438 22.984375 -29.265625 C 23.054688 -29.890625 23.46875 -30.144531 24.21875 -30.03125 C 24.945312 -29.9375 25.320312 -29.554688 25.34375 -28.890625 C 25.34375 -28.492188 25.34375 -28.109375 25.34375 -27.734375 C 25.34375 -27.597656 25.34375 -27.46875 25.34375 -27.34375 C 25.375 -24.257812 25.390625 -21.179688 25.390625 -18.109375 C 25.390625 -15.078125 25.398438 -12.039062 25.421875 -9 C 25.421875 -8.976562 25.421875 -8.957031 25.421875 -8.9375 C 25.421875 -8.425781 25.429688 -7.925781 25.453125 -7.4375 C 25.492188 -6.957031 25.75 -6.800781 26.21875 -6.96875 C 26.375 -7.039062 26.523438 -7.125 26.671875 -7.21875 C 26.703125 -7.21875 26.71875 -7.21875 26.71875 -7.21875 C 29.457031 -8.675781 32.175781 -10.191406 34.875 -11.765625 C 37.570312 -13.335938 40.195312 -15.019531 42.75 -16.8125 C 44.5 -18.03125 46.171875 -19.34375 47.765625 -20.75 C 49.367188 -22.164062 50.820312 -23.738281 52.125 -25.46875 C 53.539062 -27.3125 54.570312 -29.378906 55.21875 -31.671875 C 55.644531 -33.171875 55.757812 -34.75 55.5625 -36.40625 C 55.207031 -38.9375 54.019531 -41.082031 52 -42.84375 C 51.039062 -43.65625 50.007812 -44.3125 48.90625 -44.8125 C 44.84375 -46.707031 40.773438 -47.675781 36.703125 -47.71875 C 32.640625 -47.769531 28.726562 -47.113281 24.96875 -45.75 C 21.207031 -44.382812 17.765625 -42.523438 14.640625 -40.171875 C 11.515625 -37.828125 8.84375 -35.195312 6.625 -32.28125 C 5.757812 -31.28125 5.003906 -30.195312 4.359375 -29.03125 C 3.910156 -28.289062 3.515625 -27.53125 3.171875 -26.75 C 2.828125 -25.976562 2.601562 -25.140625 2.5 -24.234375 C 2.476562 -24.015625 2.394531 -23.859375 2.25 -23.765625 C 2.101562 -23.679688 1.925781 -23.65625 1.71875 -23.6875 C 1.457031 -23.6875 1.207031 -23.722656 0.96875 -23.796875 C 0.457031 -23.984375 0.191406 -24.34375 0.171875 -24.875 C 0.148438 -25.582031 0.269531 -26.257812 0.53125 -26.90625 C 1.394531 -29.300781 2.648438 -31.441406 4.296875 -33.328125 C 6.828125 -36.285156 9.8125 -38.957031 13.25 -41.34375 C 16.6875 -43.726562 20.414062 -45.613281 24.4375 -47 C 28.457031 -48.382812 32.617188 -49.0625 36.921875 -49.03125 C 41.234375 -49.007812 45.515625 -48.070312 49.765625 -46.21875 C 50.816406 -45.757812 51.820312 -45.207031 52.78125 -44.5625 Z M 52.78125 -44.5625 "/></g></g></g><g fill="#000000" fill-opacity="1"><g transform="translate(132.61385, 181.905031)"><g><path d="M 52.78125 -44.5625 C 54.925781 -43.164062 56.484375 -41.425781 57.453125 -39.34375 C 58.421875 -37.257812 58.734375 -35.050781 58.390625 -32.71875 C 57.921875 -29.875 56.882812 -27.335938 55.28125 -25.109375 C 53.6875 -22.890625 51.859375 -20.898438 49.796875 -19.140625 C 48.085938 -17.679688 46.3125 -16.316406 44.46875 -15.046875 C 42.632812 -13.785156 40.75 -12.59375 38.8125 -11.46875 C 36.289062 -9.976562 33.734375 -8.523438 31.140625 -7.109375 C 30.003906 -6.484375 28.875 -5.863281 27.75 -5.25 C 27.695312 -5.195312 27.640625 -5.148438 27.578125 -5.109375 C 27.421875 -5.015625 27.265625 -4.953125 27.109375 -4.921875 C 26.460938 -4.691406 26.019531 -4.367188 25.78125 -3.953125 C 25.539062 -3.546875 25.414062 -3.070312 25.40625 -2.53125 C 25.394531 -1.988281 25.421875 -1.425781 25.484375 -0.84375 C 25.503906 -0.5625 25.660156 -0.363281 25.953125 -0.25 C 26.265625 -0.144531 26.585938 -0.0546875 26.921875 0.015625 C 28.378906 0.328125 29.835938 0.625 31.296875 0.90625 C 33.734375 1.414062 36.1875 1.925781 38.65625 2.4375 C 41.363281 2.988281 44.066406 3.554688 46.765625 4.140625 C 48.410156 4.492188 50.066406 4.847656 51.734375 5.203125 C 52.191406 5.316406 52.644531 5.40625 53.09375 5.46875 C 53.601562 5.582031 54.113281 5.695312 54.625 5.8125 C 55 5.863281 55.375 5.972656 55.75 6.140625 C 55.863281 6.203125 55.957031 6.28125 56.03125 6.375 C 56.113281 6.476562 56.140625 6.609375 56.109375 6.765625 C 56.085938 6.898438 56.039062 6.984375 55.96875 7.015625 C 55.894531 7.046875 55.8125 7.0625 55.71875 7.0625 C 55.40625 7.082031 55.082031 7.0625 54.75 7 C 53.363281 6.757812 51.96875 6.53125 50.5625 6.3125 C 48.238281 5.945312 45.910156 5.519531 43.578125 5.03125 C 39.828125 4.238281 36.078125 3.453125 32.328125 2.671875 C 31.535156 2.515625 30.726562 2.347656 29.90625 2.171875 C 28.707031 1.898438 27.488281 1.671875 26.25 1.484375 C 25.71875 1.367188 25.453125 1.597656 25.453125 2.171875 C 25.429688 2.566406 25.421875 2.957031 25.421875 3.34375 C 25.421875 3.539062 25.421875 3.738281 25.421875 3.9375 C 25.347656 10.414062 25.28125 16.898438 25.21875 23.390625 C 25.21875 23.460938 25.21875 23.546875 25.21875 23.640625 C 25.21875 23.878906 25.203125 24.117188 25.171875 24.359375 C 25.128906 24.960938 24.796875 25.21875 24.171875 25.125 C 23.546875 25.039062 23.195312 24.710938 23.125 24.140625 C 23.082031 23.847656 23.070312 23.554688 23.09375 23.265625 C 23.09375 23.222656 23.09375 23.191406 23.09375 23.171875 C 23.070312 19.753906 23.035156 16.390625 22.984375 13.078125 C 22.941406 9.734375 22.921875 6.332031 22.921875 2.875 C 22.921875 2.71875 22.921875 2.550781 22.921875 2.375 C 22.898438 2.082031 22.898438 1.796875 22.921875 1.515625 C 22.941406 0.992188 22.710938 0.625 22.234375 0.40625 C 22.179688 0.382812 22.125 0.363281 22.0625 0.34375 C 21.675781 0.1875 21.304688 -0.00390625 20.953125 -0.234375 C 19.921875 -0.910156 19.679688 -1.738281 20.234375 -2.71875 C 20.648438 -3.40625 21.203125 -3.945312 21.890625 -4.34375 C 22.304688 -4.5625 22.585938 -4.847656 22.734375 -5.203125 C 22.878906 -5.566406 22.953125 -6 22.953125 -6.5 C 22.929688 -12.132812 22.929688 -17.769531 22.953125 -23.40625 C 22.953125 -24.78125 22.953125 -26.15625 22.953125 -27.53125 C 22.953125 -27.59375 22.953125 -27.671875 22.953125 -27.765625 C 22.953125 -28.273438 22.960938 -28.773438 22.984375 -29.265625 C 23.054688 -29.890625 23.46875 -30.144531 24.21875 -30.03125 C 24.945312 -29.9375 25.320312 -29.554688 25.34375 -28.890625 C 25.34375 -28.492188 25.34375 -28.109375 25.34375 -27.734375 C 25.34375 -27.597656 25.34375 -27.46875 25.34375 -27.34375 C 25.375 -24.257812 25.390625 -21.179688 25.390625 -18.109375 C 25.390625 -15.078125 25.398438 -12.039062 25.421875 -9 C 25.421875 -8.976562 25.421875 -8.957031 25.421875 -8.9375 C 25.421875 -8.425781 25.429688 -7.925781 25.453125 -7.4375 C 25.492188 -6.957031 25.75 -6.800781 26.21875 -6.96875 C 26.375 -7.039062 26.523438 -7.125 26.671875 -7.21875 C 26.703125 -7.21875 26.71875 -7.21875 26.71875 -7.21875 C 29.457031 -8.675781 32.175781 -10.191406 34.875 -11.765625 C 37.570312 -13.335938 40.195312 -15.019531 42.75 -16.8125 C 44.5 -18.03125 46.171875 -19.34375 47.765625 -20.75 C 49.367188 -22.164062 50.820312 -23.738281 52.125 -25.46875 C 53.539062 -27.3125 54.570312 -29.378906 55.21875 -31.671875 C 55.644531 -33.171875 55.757812 -34.75 55.5625 -36.40625 C 55.207031 -38.9375 54.019531 -41.082031 52 -42.84375 C 51.039062 -43.65625 50.007812 -44.3125 48.90625 -44.8125 C 44.84375 -46.707031 40.773438 -47.675781 36.703125 -47.71875 C 32.640625 -47.769531 28.726562 -47.113281 24.96875 -45.75 C 21.207031 -44.382812 17.765625 -42.523438 14.640625 -40.171875 C 11.515625 -37.828125 8.84375 -35.195312 6.625 -32.28125 C 5.757812 -31.28125 5.003906 -30.195312 4.359375 -29.03125 C 3.910156 -28.289062 3.515625 -27.53125 3.171875 -26.75 C 2.828125 -25.976562 2.601562 -25.140625 2.5 -24.234375 C 2.476562 -24.015625 2.394531 -23.859375 2.25 -23.765625 C 2.101562 -23.679688 1.925781 -23.65625 1.71875 -23.6875 C 1.457031 -23.6875 1.207031 -23.722656 0.96875 -23.796875 C 0.457031 -23.984375 0.191406 -24.34375 0.171875 -24.875 C 0.148438 -25.582031 0.269531 -26.257812 0.53125 -26.90625 C 1.394531 -29.300781 2.648438 -31.441406 4.296875 -33.328125 C 6.828125 -36.285156 9.8125 -38.957031 13.25 -41.34375 C 16.6875 -43.726562 20.414062 -45.613281 24.4375 -47 C 28.457031 -48.382812 32.617188 -49.0625 36.921875 -49.03125 C 41.234375 -49.007812 45.515625 -48.070312 49.765625 -46.21875 C 50.816406 -45.757812 51.820312 -45.207031 52.78125 -44.5625 Z M 52.78125 -44.5625 "/></g></g></g><g fill="#000000" fill-opacity="1"><g transform="translate(179.662648, 181.905031)"><g><path d="M 35.03125 -32.78125 C 35.59375 -29.988281 35.945312 -26.644531 36.09375 -22.75 C 36.132812 -19.820312 35.90625 -16.738281 35.40625 -13.5 C 34.90625 -10.257812 34.003906 -7.019531 32.703125 -3.78125 C 31.878906 -1.875 30.914062 -0.0546875 29.8125 1.671875 C 28.71875 3.398438 27.421875 4.984375 25.921875 6.421875 C 24.753906 7.566406 23.46875 8.507812 22.0625 9.25 C 20.507812 10.082031 18.832031 10.578125 17.03125 10.734375 C 15.226562 10.890625 13.453125 10.640625 11.703125 9.984375 C 9.960938 9.328125 8.367188 8.195312 6.921875 6.59375 C 5.609375 5.070312 4.53125 3.398438 3.6875 1.578125 C 1.78125 -2.640625 0.660156 -7.039062 0.328125 -11.625 C 0.109375 -14.375 0.171875 -17.097656 0.515625 -19.796875 C 0.859375 -22.492188 1.53125 -25.148438 2.53125 -27.765625 C 2.925781 -28.847656 3.394531 -29.898438 3.9375 -30.921875 C 4.269531 -31.523438 4.296875 -32.132812 4.015625 -32.75 C 3.085938 -34.96875 2.535156 -37.273438 2.359375 -39.671875 C 2.203125 -42.003906 2.550781 -44.195312 3.40625 -46.25 C 4.257812 -48.300781 5.453125 -50.046875 6.984375 -51.484375 C 8.515625 -52.929688 10.234375 -53.90625 12.140625 -54.40625 C 16.773438 -55.601562 21.046875 -54.796875 24.953125 -51.984375 C 27.367188 -50.210938 29.289062 -47.992188 30.71875 -45.328125 C 31.769531 -43.359375 32.640625 -41.320312 33.328125 -39.21875 C 34.023438 -37.125 34.59375 -34.976562 35.03125 -32.78125 Z M 30.796875 -5.875 C 31.703125 -8.425781 32.359375 -11.007812 32.765625 -13.625 C 33.171875 -16.25 33.394531 -18.863281 33.4375 -21.46875 C 33.4375 -26.90625 32.691406 -32.164062 31.203125 -37.25 C 30.734375 -38.820312 30.179688 -40.363281 29.546875 -41.875 C 28.921875 -43.382812 28.15625 -44.832031 27.25 -46.21875 C 26.425781 -47.507812 25.46875 -48.671875 24.375 -49.703125 C 23.289062 -50.734375 22.050781 -51.597656 20.65625 -52.296875 C 19.007812 -53.109375 17.367188 -53.507812 15.734375 -53.5 C 14.097656 -53.488281 12.503906 -52.945312 10.953125 -51.875 C 8.972656 -50.53125 7.484375 -48.90625 6.484375 -47 C 5.484375 -45.09375 5.03125 -42.941406 5.125 -40.546875 C 5.34375 -34.441406 7.757812 -29.359375 12.375 -25.296875 C 13.84375 -23.992188 15.40625 -22.863281 17.0625 -21.90625 C 18.726562 -20.945312 20.503906 -20.207031 22.390625 -19.6875 C 22.472656 -19.65625 22.5625 -19.628906 22.65625 -19.609375 C 22.832031 -19.585938 23.003906 -19.546875 23.171875 -19.484375 C 23.335938 -19.421875 23.488281 -19.320312 23.625 -19.1875 C 23.6875 -19.113281 23.734375 -19.023438 23.765625 -18.921875 C 23.796875 -18.828125 23.8125 -18.734375 23.8125 -18.640625 C 23.789062 -18.578125 23.753906 -18.5 23.703125 -18.40625 C 23.648438 -18.320312 23.585938 -18.257812 23.515625 -18.21875 C 23.140625 -18.019531 22.765625 -18.007812 22.390625 -18.1875 C 21.785156 -18.46875 21.160156 -18.691406 20.515625 -18.859375 C 20.410156 -18.878906 20.316406 -18.898438 20.234375 -18.921875 C 14.523438 -20.453125 9.929688 -23.578125 6.453125 -28.296875 C 6.398438 -28.359375 6.359375 -28.425781 6.328125 -28.5 C 6.253906 -28.65625 6.160156 -28.78125 6.046875 -28.875 C 5.929688 -28.976562 5.789062 -29.003906 5.625 -28.953125 C 5.488281 -28.929688 5.394531 -28.867188 5.34375 -28.765625 C 5.289062 -28.671875 5.25 -28.554688 5.21875 -28.421875 C 5.195312 -28.335938 5.164062 -28.265625 5.125 -28.203125 C 5.050781 -28.035156 4.992188 -27.867188 4.953125 -27.703125 C 4.929688 -27.628906 4.898438 -27.546875 4.859375 -27.453125 C 3.460938 -23.460938 2.738281 -19.46875 2.6875 -15.46875 C 2.644531 -11.46875 3.226562 -7.453125 4.4375 -3.421875 C 4.84375 -1.972656 5.347656 -0.582031 5.953125 0.75 C 6.566406 2.09375 7.3125 3.375 8.1875 4.59375 C 9.195312 6.039062 10.457031 7.222656 11.96875 8.140625 C 14.15625 9.460938 16.441406 9.679688 18.828125 8.796875 C 20.203125 8.242188 21.46875 7.5 22.625 6.5625 C 23.726562 5.65625 24.722656 4.644531 25.609375 3.53125 C 26.742188 2.113281 27.738281 0.613281 28.59375 -0.96875 C 29.445312 -2.550781 30.179688 -4.1875 30.796875 -5.875 Z M 30.796875 -5.875 "/></g></g></g><g fill="#000000" fill-opacity="1"><g transform="translate(217.849154, 181.905031)"><g><path d="M 52.78125 -44.5625 C 54.925781 -43.164062 56.484375 -41.425781 57.453125 -39.34375 C 58.421875 -37.257812 58.734375 -35.050781 58.390625 -32.71875 C 57.921875 -29.875 56.882812 -27.335938 55.28125 -25.109375 C 53.6875 -22.890625 51.859375 -20.898438 49.796875 -19.140625 C 48.085938 -17.679688 46.3125 -16.316406 44.46875 -15.046875 C 42.632812 -13.785156 40.75 -12.59375 38.8125 -11.46875 C 36.289062 -9.976562 33.734375 -8.523438 31.140625 -7.109375 C 30.003906 -6.484375 28.875 -5.863281 27.75 -5.25 C 27.695312 -5.195312 27.640625 -5.148438 27.578125 -5.109375 C 27.421875 -5.015625 27.265625 -4.953125 27.109375 -4.921875 C 26.460938 -4.691406 26.019531 -4.367188 25.78125 -3.953125 C 25.539062 -3.546875 25.414062 -3.070312 25.40625 -2.53125 C 25.394531 -1.988281 25.421875 -1.425781 25.484375 -0.84375 C 25.503906 -0.5625 25.660156 -0.363281 25.953125 -0.25 C 26.265625 -0.144531 26.585938 -0.0546875 26.921875 0.015625 C 28.378906 0.328125 29.835938 0.625 31.296875 0.90625 C 33.734375 1.414062 36.1875 1.925781 38.65625 2.4375 C 41.363281 2.988281 44.066406 3.554688 46.765625 4.140625 C 48.410156 4.492188 50.066406 4.847656 51.734375 5.203125 C 52.191406 5.316406 52.644531 5.40625 53.09375 5.46875 C 53.601562 5.582031 54.113281 5.695312 54.625 5.8125 C 55 5.863281 55.375 5.972656 55.75 6.140625 C 55.863281 6.203125 55.957031 6.28125 56.03125 6.375 C 56.113281 6.476562 56.140625 6.609375 56.109375 6.765625 C 56.085938 6.898438 56.039062 6.984375 55.96875 7.015625 C 55.894531 7.046875 55.8125 7.0625 55.71875 7.0625 C 55.40625 7.082031 55.082031 7.0625 54.75 7 C 53.363281 6.757812 51.96875 6.53125 50.5625 6.3125 C 48.238281 5.945312 45.910156 5.519531 43.578125 5.03125 C 39.828125 4.238281 36.078125 3.453125 32.328125 2.671875 C 31.535156 2.515625 30.726562 2.347656 29.90625 2.171875 C 28.707031 1.898438 27.488281 1.671875 26.25 1.484375 C 25.71875 1.367188 25.453125 1.597656 25.453125 2.171875 C 25.429688 2.566406 25.421875 2.957031 25.421875 3.34375 C 25.421875 3.539062 25.421875 3.738281 25.421875 3.9375 C 25.347656 10.414062 25.28125 16.898438 25.21875 23.390625 C 25.21875 23.460938 25.21875 23.546875 25.21875 23.640625 C 25.21875 23.878906 25.203125 24.117188 25.171875 24.359375 C 25.128906 24.960938 24.796875 25.21875 24.171875 25.125 C 23.546875 25.039062 23.195312 24.710938 23.125 24.140625 C 23.082031 23.847656 23.070312 23.554688 23.09375 23.265625 C 23.09375 23.222656 23.09375 23.191406 23.09375 23.171875 C 23.070312 19.753906 23.035156 16.390625 22.984375 13.078125 C 22.941406 9.734375 22.921875 6.332031 22.921875 2.875 C 22.921875 2.71875 22.921875 2.550781 22.921875 2.375 C 22.898438 2.082031 22.898438 1.796875 22.921875 1.515625 C 22.941406 0.992188 22.710938 0.625 22.234375 0.40625 C 22.179688 0.382812 22.125 0.363281 22.0625 0.34375 C 21.675781 0.1875 21.304688 -0.00390625 20.953125 -0.234375 C 19.921875 -0.910156 19.679688 -1.738281 20.234375 -2.71875 C 20.648438 -3.40625 21.203125 -3.945312 21.890625 -4.34375 C 22.304688 -4.5625 22.585938 -4.847656 22.734375 -5.203125 C 22.878906 -5.566406 22.953125 -6 22.953125 -6.5 C 22.929688 -12.132812 22.929688 -17.769531 22.953125 -23.40625 C 22.953125 -24.78125 22.953125 -26.15625 22.953125 -27.53125 C 22.953125 -27.59375 22.953125 -27.671875 22.953125 -27.765625 C 22.953125 -28.273438 22.960938 -28.773438 22.984375 -29.265625 C 23.054688 -29.890625 23.46875 -30.144531 24.21875 -30.03125 C 24.945312 -29.9375 25.320312 -29.554688 25.34375 -28.890625 C 25.34375 -28.492188 25.34375 -28.109375 25.34375 -27.734375 C 25.34375 -27.597656 25.34375 -27.46875 25.34375 -27.34375 C 25.375 -24.257812 25.390625 -21.179688 25.390625 -18.109375 C 25.390625 -15.078125 25.398438 -12.039062 25.421875 -9 C 25.421875 -8.976562 25.421875 -8.957031 25.421875 -8.9375 C 25.421875 -8.425781 25.429688 -7.925781 25.453125 -7.4375 C 25.492188 -6.957031 25.75 -6.800781 26.21875 -6.96875 C 26.375 -7.039062 26.523438 -7.125 26.671875 -7.21875 C 26.703125 -7.21875 26.71875 -7.21875 26.71875 -7.21875 C 29.457031 -8.675781 32.175781 -10.191406 34.875 -11.765625 C 37.570312 -13.335938 40.195312 -15.019531 42.75 -16.8125 C 44.5 -18.03125 46.171875 -19.34375 47.765625 -20.75 C 49.367188 -22.164062 50.820312 -23.738281 52.125 -25.46875 C 53.539062 -27.3125 54.570312 -29.378906 55.21875 -31.671875 C 55.644531 -33.171875 55.757812 -34.75 55.5625 -36.40625 C 55.207031 -38.9375 54.019531 -41.082031 52 -42.84375 C 51.039062 -43.65625 50.007812 -44.3125 48.90625 -44.8125 C 44.84375 -46.707031 40.773438 -47.675781 36.703125 -47.71875 C 32.640625 -47.769531 28.726562 -47.113281 24.96875 -45.75 C 21.207031 -44.382812 17.765625 -42.523438 14.640625 -40.171875 C 11.515625 -37.828125 8.84375 -35.195312 6.625 -32.28125 C 5.757812 -31.28125 5.003906 -30.195312 4.359375 -29.03125 C 3.910156 -28.289062 3.515625 -27.53125 3.171875 -26.75 C 2.828125 -25.976562 2.601562 -25.140625 2.5 -24.234375 C 2.476562 -24.015625 2.394531 -23.859375 2.25 -23.765625 C 2.101562 -23.679688 1.925781 -23.65625 1.71875 -23.6875 C 1.457031 -23.6875 1.207031 -23.722656 0.96875 -23.796875 C 0.457031 -23.984375 0.191406 -24.34375 0.171875 -24.875 C 0.148438 -25.582031 0.269531 -26.257812 0.53125 -26.90625 C 1.394531 -29.300781 2.648438 -31.441406 4.296875 -33.328125 C 6.828125 -36.285156 9.8125 -38.957031 13.25 -41.34375 C 16.6875 -43.726562 20.414062 -45.613281 24.4375 -47 C 28.457031 -48.382812 32.617188 -49.0625 36.921875 -49.03125 C 41.234375 -49.007812 45.515625 -48.070312 49.765625 -46.21875 C 50.816406 -45.757812 51.820312 -45.207031 52.78125 -44.5625 Z M 52.78125 -44.5625 "/></g></g></g></svg>